<?xml version="1.0" encoding="utf-8" standalone="no"?>
<!DOCTYPE svg PUBLIC "-//W3C//DTD SVG 1.1//EN"
  "http://www.w3.org/Graphics/SVG/1.1/DTD/svg11.dtd">
<!-- Created with matplotlib (http://matplotlib.org/) -->
<svg height="345.6pt" version="1.1" viewBox="0 0 460.8 345.6" width="460.8pt" xmlns="http://www.w3.org/2000/svg" xmlns:xlink="http://www.w3.org/1999/xlink">
 <defs>
  <style type="text/css">
*{stroke-linecap:butt;stroke-linejoin:round;}
  </style>
 </defs>
 <g id="figure_1">
  <g id="patch_1">
   <path d="M 0 345.6 
L 460.8 345.6 
L 460.8 0 
L 0 0 
z
" style="fill:#ffffff;"/>
  </g>
  <g id="axes_1">
   <g id="patch_2">
    <path d="M 72.4739 240.43416 
L 413.906388 240.43416 
L 413.906388 13.32 
L 72.4739 13.32 
z
" style="fill:#ffffff;"/>
   </g>
   <g id="matplotlib.axis_1">
    <g id="xtick_1">
     <g id="line2d_1">
      <path clip-path="url(#p1bf3598baf)" d="M 87.993559 240.43416 
L 87.993559 13.32 
" style="fill:none;stroke:#b0b0b0;stroke-linecap:square;stroke-width:0.8;"/>
     </g>
     <g id="line2d_2">
      <defs>
       <path d="M 0 0 
L 0 3.5 
" id="m083ee6dcde" style="stroke:#000000;stroke-width:0.8;"/>
      </defs>
      <g>
       <use style="stroke:#000000;stroke-width:0.8;" x="87.993559" xlink:href="#m083ee6dcde" y="240.43416"/>
      </g>
     </g>
     <g id="text_1">
      <!-- $500 \times 500$ -->
      <defs>
       <path d="M 10.796875 72.90625 
L 49.515625 72.90625 
L 49.515625 64.59375 
L 19.828125 64.59375 
L 19.828125 46.734375 
Q 21.96875 47.46875 24.109375 47.828125 
Q 26.265625 48.1875 28.421875 48.1875 
Q 40.625 48.1875 47.75 41.5 
Q 54.890625 34.8125 54.890625 23.390625 
Q 54.890625 11.625 47.5625 5.09375 
Q 40.234375 -1.421875 26.90625 -1.421875 
Q 22.3125 -1.421875 17.546875 -0.640625 
Q 12.796875 0.140625 7.71875 1.703125 
L 7.71875 11.625 
Q 12.109375 9.234375 16.796875 8.0625 
Q 21.484375 6.890625 26.703125 6.890625 
Q 35.15625 6.890625 40.078125 11.328125 
Q 45.015625 15.765625 45.015625 23.390625 
Q 45.015625 31 40.078125 35.4375 
Q 35.15625 39.890625 26.703125 39.890625 
Q 22.75 39.890625 18.8125 39.015625 
Q 14.890625 38.140625 10.796875 36.28125 
z
" id="DejaVuSans-35"/>
       <path d="M 31.78125 66.40625 
Q 24.171875 66.40625 20.328125 58.90625 
Q 16.5 51.421875 16.5 36.375 
Q 16.5 21.390625 20.328125 13.890625 
Q 24.171875 6.390625 31.78125 6.390625 
Q 39.453125 6.390625 43.28125 13.890625 
Q 47.125 21.390625 47.125 36.375 
Q 47.125 51.421875 43.28125 58.90625 
Q 39.453125 66.40625 31.78125 66.40625 
z
M 31.78125 74.21875 
Q 44.046875 74.21875 50.515625 64.515625 
Q 56.984375 54.828125 56.984375 36.375 
Q 56.984375 17.96875 50.515625 8.265625 
Q 44.046875 -1.421875 31.78125 -1.421875 
Q 19.53125 -1.421875 13.0625 8.265625 
Q 6.59375 17.96875 6.59375 36.375 
Q 6.59375 54.828125 13.0625 64.515625 
Q 19.53125 74.21875 31.78125 74.21875 
z
" id="DejaVuSans-30"/>
       <path d="M 70.125 53.71875 
L 47.796875 31.296875 
L 70.125 8.984375 
L 64.3125 3.078125 
L 41.890625 25.484375 
L 19.484375 3.078125 
L 13.71875 8.984375 
L 35.984375 31.296875 
L 13.71875 53.71875 
L 19.484375 59.625 
L 41.890625 37.203125 
L 64.3125 59.625 
z
" id="DejaVuSans-d7"/>
      </defs>
      <g transform="translate(89.46412 252.807067)rotate(-315)scale(0.1 -0.1)">
       <use transform="translate(0 0.78125)" xlink:href="#DejaVuSans-35"/>
       <use transform="translate(63.623047 0.78125)" xlink:href="#DejaVuSans-30"/>
       <use transform="translate(127.246094 0.78125)" xlink:href="#DejaVuSans-30"/>
       <use transform="translate(210.351562 0.78125)" xlink:href="#DejaVuSans-d7"/>
       <use transform="translate(313.623047 0.78125)" xlink:href="#DejaVuSans-35"/>
       <use transform="translate(377.246094 0.78125)" xlink:href="#DejaVuSans-30"/>
       <use transform="translate(440.869141 0.78125)" xlink:href="#DejaVuSans-30"/>
      </g>
     </g>
    </g>
    <g id="xtick_2">
     <g id="line2d_3">
      <path clip-path="url(#p1bf3598baf)" d="M 165.591851 240.43416 
L 165.591851 13.32 
" style="fill:none;stroke:#b0b0b0;stroke-linecap:square;stroke-width:0.8;"/>
     </g>
     <g id="line2d_4">
      <g>
       <use style="stroke:#000000;stroke-width:0.8;" x="165.591851" xlink:href="#m083ee6dcde" y="240.43416"/>
      </g>
     </g>
     <g id="text_2">
      <!-- $750 \times 750$ -->
      <defs>
       <path d="M 8.203125 72.90625 
L 55.078125 72.90625 
L 55.078125 68.703125 
L 28.609375 0 
L 18.3125 0 
L 43.21875 64.59375 
L 8.203125 64.59375 
z
" id="DejaVuSans-37"/>
      </defs>
      <g transform="translate(167.062412 252.807067)rotate(-315)scale(0.1 -0.1)">
       <use transform="translate(0 0.78125)" xlink:href="#DejaVuSans-37"/>
       <use transform="translate(63.623047 0.78125)" xlink:href="#DejaVuSans-35"/>
       <use transform="translate(127.246094 0.78125)" xlink:href="#DejaVuSans-30"/>
       <use transform="translate(210.351562 0.78125)" xlink:href="#DejaVuSans-d7"/>
       <use transform="translate(313.623047 0.78125)" xlink:href="#DejaVuSans-37"/>
       <use transform="translate(377.246094 0.78125)" xlink:href="#DejaVuSans-35"/>
       <use transform="translate(440.869141 0.78125)" xlink:href="#DejaVuSans-30"/>
      </g>
     </g>
    </g>
    <g id="xtick_3">
     <g id="line2d_5">
      <path clip-path="url(#p1bf3598baf)" d="M 243.190144 240.43416 
L 243.190144 13.32 
" style="fill:none;stroke:#b0b0b0;stroke-linecap:square;stroke-width:0.8;"/>
     </g>
     <g id="line2d_6">
      <g>
       <use style="stroke:#000000;stroke-width:0.8;" x="243.190144" xlink:href="#m083ee6dcde" y="240.43416"/>
      </g>
     </g>
     <g id="text_3">
      <!-- $1000 \times 1000$ -->
      <defs>
       <path d="M 12.40625 8.296875 
L 28.515625 8.296875 
L 28.515625 63.921875 
L 10.984375 60.40625 
L 10.984375 69.390625 
L 28.421875 72.90625 
L 38.28125 72.90625 
L 38.28125 8.296875 
L 54.390625 8.296875 
L 54.390625 0 
L 12.40625 0 
z
" id="DejaVuSans-31"/>
      </defs>
      <g transform="translate(244.660705 252.807067)rotate(-315)scale(0.1 -0.1)">
       <use transform="translate(0 0.78125)" xlink:href="#DejaVuSans-31"/>
       <use transform="translate(63.623047 0.78125)" xlink:href="#DejaVuSans-30"/>
       <use transform="translate(127.246094 0.78125)" xlink:href="#DejaVuSans-30"/>
       <use transform="translate(190.869141 0.78125)" xlink:href="#DejaVuSans-30"/>
       <use transform="translate(273.974609 0.78125)" xlink:href="#DejaVuSans-d7"/>
       <use transform="translate(377.246094 0.78125)" xlink:href="#DejaVuSans-31"/>
       <use transform="translate(440.869141 0.78125)" xlink:href="#DejaVuSans-30"/>
       <use transform="translate(504.492188 0.78125)" xlink:href="#DejaVuSans-30"/>
       <use transform="translate(568.115234 0.78125)" xlink:href="#DejaVuSans-30"/>
      </g>
     </g>
    </g>
    <g id="xtick_4">
     <g id="line2d_7">
      <path clip-path="url(#p1bf3598baf)" d="M 320.788436 240.43416 
L 320.788436 13.32 
" style="fill:none;stroke:#b0b0b0;stroke-linecap:square;stroke-width:0.8;"/>
     </g>
     <g id="line2d_8">
      <g>
       <use style="stroke:#000000;stroke-width:0.8;" x="320.788436" xlink:href="#m083ee6dcde" y="240.43416"/>
      </g>
     </g>
     <g id="text_4">
      <!-- $1250 \times 1250$ -->
      <defs>
       <path d="M 19.1875 8.296875 
L 53.609375 8.296875 
L 53.609375 0 
L 7.328125 0 
L 7.328125 8.296875 
Q 12.9375 14.109375 22.625 23.890625 
Q 32.328125 33.6875 34.8125 36.53125 
Q 39.546875 41.84375 41.421875 45.53125 
Q 43.3125 49.21875 43.3125 52.78125 
Q 43.3125 58.59375 39.234375 62.25 
Q 35.15625 65.921875 28.609375 65.921875 
Q 23.96875 65.921875 18.8125 64.3125 
Q 13.671875 62.703125 7.8125 59.421875 
L 7.8125 69.390625 
Q 13.765625 71.78125 18.9375 73 
Q 24.125 74.21875 28.421875 74.21875 
Q 39.75 74.21875 46.484375 68.546875 
Q 53.21875 62.890625 53.21875 53.421875 
Q 53.21875 48.921875 51.53125 44.890625 
Q 49.859375 40.875 45.40625 35.40625 
Q 44.1875 33.984375 37.640625 27.21875 
Q 31.109375 20.453125 19.1875 8.296875 
z
" id="DejaVuSans-32"/>
      </defs>
      <g transform="translate(322.258998 252.807067)rotate(-315)scale(0.1 -0.1)">
       <use transform="translate(0 0.78125)" xlink:href="#DejaVuSans-31"/>
       <use transform="translate(63.623047 0.78125)" xlink:href="#DejaVuSans-32"/>
       <use transform="translate(127.246094 0.78125)" xlink:href="#DejaVuSans-35"/>
       <use transform="translate(190.869141 0.78125)" xlink:href="#DejaVuSans-30"/>
       <use transform="translate(273.974609 0.78125)" xlink:href="#DejaVuSans-d7"/>
       <use transform="translate(377.246094 0.78125)" xlink:href="#DejaVuSans-31"/>
       <use transform="translate(440.869141 0.78125)" xlink:href="#DejaVuSans-32"/>
       <use transform="translate(504.492188 0.78125)" xlink:href="#DejaVuSans-35"/>
       <use transform="translate(568.115234 0.78125)" xlink:href="#DejaVuSans-30"/>
      </g>
     </g>
    </g>
    <g id="xtick_5">
     <g id="line2d_9">
      <path clip-path="url(#p1bf3598baf)" d="M 398.386729 240.43416 
L 398.386729 13.32 
" style="fill:none;stroke:#b0b0b0;stroke-linecap:square;stroke-width:0.8;"/>
     </g>
     <g id="line2d_10">
      <g>
       <use style="stroke:#000000;stroke-width:0.8;" x="398.386729" xlink:href="#m083ee6dcde" y="240.43416"/>
      </g>
     </g>
     <g id="text_5">
      <!-- $1500 \times 1500$ -->
      <g transform="translate(399.85729 252.807067)rotate(-315)scale(0.1 -0.1)">
       <use transform="translate(0 0.78125)" xlink:href="#DejaVuSans-31"/>
       <use transform="translate(63.623047 0.78125)" xlink:href="#DejaVuSans-35"/>
       <use transform="translate(127.246094 0.78125)" xlink:href="#DejaVuSans-30"/>
       <use transform="translate(190.869141 0.78125)" xlink:href="#DejaVuSans-30"/>
       <use transform="translate(273.974609 0.78125)" xlink:href="#DejaVuSans-d7"/>
       <use transform="translate(377.246094 0.78125)" xlink:href="#DejaVuSans-31"/>
       <use transform="translate(440.869141 0.78125)" xlink:href="#DejaVuSans-35"/>
       <use transform="translate(504.492188 0.78125)" xlink:href="#DejaVuSans-30"/>
       <use transform="translate(568.115234 0.78125)" xlink:href="#DejaVuSans-30"/>
      </g>
     </g>
    </g>
    <g id="text_6">
     <!-- $\frac{A_{image}}{pixels^2}$ -->
     <defs>
      <path d="M 36.8125 72.90625 
L 48 72.90625 
L 61.53125 0 
L 51.21875 0 
L 48.1875 18.703125 
L 15.375 18.703125 
L 5.078125 0 
L -5.328125 0 
z
M 40.375 63.1875 
L 19.921875 26.90625 
L 46.6875 26.90625 
z
" id="DejaVuSans-Oblique-41"/>
      <path d="M 18.3125 75.984375 
L 27.296875 75.984375 
L 25.09375 64.59375 
L 16.109375 64.59375 
z
M 14.203125 54.6875 
L 23.1875 54.6875 
L 12.5 0 
L 3.515625 0 
z
" id="DejaVuSans-Oblique-69"/>
      <path d="M 89.796875 33.015625 
L 83.40625 0 
L 74.421875 0 
L 80.71875 32.71875 
Q 81.109375 34.8125 81.296875 36.328125 
Q 81.5 37.84375 81.5 38.921875 
Q 81.5 43.3125 79.046875 45.75 
Q 76.609375 48.1875 72.21875 48.1875 
Q 65.671875 48.1875 60.546875 43.28125 
Q 55.421875 38.375 53.90625 30.515625 
L 47.90625 0 
L 38.921875 0 
L 45.3125 32.71875 
Q 45.703125 34.515625 45.890625 36.046875 
Q 46.09375 37.59375 46.09375 38.8125 
Q 46.09375 43.265625 43.65625 45.71875 
Q 41.21875 48.1875 36.921875 48.1875 
Q 30.28125 48.1875 25.140625 43.28125 
Q 20.015625 38.375 18.5 30.515625 
L 12.5 0 
L 3.515625 0 
L 14.203125 54.6875 
L 23.1875 54.6875 
L 21.484375 46.1875 
Q 25.140625 50.984375 30.046875 53.484375 
Q 34.96875 56 40.578125 56 
Q 46.53125 56 50.359375 52.875 
Q 54.203125 49.75 54.984375 44.1875 
Q 59.078125 49.953125 64.46875 52.96875 
Q 69.875 56 75.875 56 
Q 82.90625 56 86.734375 51.953125 
Q 90.578125 47.90625 90.578125 40.484375 
Q 90.578125 38.875 90.375 36.9375 
Q 90.1875 35.015625 89.796875 33.015625 
z
" id="DejaVuSans-Oblique-6d"/>
      <path d="M 53.71875 31.203125 
L 47.609375 0 
L 38.625 0 
L 40.28125 8.296875 
Q 36.328125 3.421875 31.265625 1 
Q 26.21875 -1.421875 20.015625 -1.421875 
Q 13.03125 -1.421875 8.5625 2.84375 
Q 4.109375 7.125 4.109375 13.8125 
Q 4.109375 23.390625 11.75 28.953125 
Q 19.390625 34.515625 32.8125 34.515625 
L 45.3125 34.515625 
L 45.796875 36.921875 
Q 45.90625 37.3125 45.953125 37.765625 
Q 46 38.234375 46 39.203125 
Q 46 43.5625 42.453125 45.96875 
Q 38.921875 48.390625 32.515625 48.390625 
Q 28.125 48.390625 23.5 47.265625 
Q 18.890625 46.140625 14.015625 43.890625 
L 15.578125 52.203125 
Q 20.65625 54.109375 25.515625 55.046875 
Q 30.375 56 34.90625 56 
Q 44.578125 56 49.625 51.796875 
Q 54.6875 47.609375 54.6875 39.59375 
Q 54.6875 37.984375 54.4375 35.8125 
Q 54.203125 33.640625 53.71875 31.203125 
z
M 44 27.484375 
L 35.015625 27.484375 
Q 23.96875 27.484375 18.671875 24.53125 
Q 13.375 21.578125 13.375 15.375 
Q 13.375 11.078125 16.078125 8.640625 
Q 18.796875 6.203125 23.578125 6.203125 
Q 30.90625 6.203125 36.375 11.453125 
Q 41.84375 16.703125 43.609375 25.484375 
z
" id="DejaVuSans-Oblique-61"/>
      <path d="M 59.625 54.6875 
L 50.296875 6.78125 
Q 47.609375 -7.125 40.015625 -13.953125 
Q 32.421875 -20.796875 19.578125 -20.796875 
Q 14.84375 -20.796875 10.78125 -20.09375 
Q 6.734375 -19.390625 3.21875 -17.921875 
L 4.890625 -9.1875 
Q 8.203125 -11.328125 11.90625 -12.34375 
Q 15.625 -13.375 19.828125 -13.375 
Q 28.375 -13.375 33.859375 -8.703125 
Q 39.359375 -4.046875 41.109375 4.6875 
L 41.890625 8.796875 
Q 38.140625 4.5 33.15625 2.25 
Q 28.171875 0 22.40625 0 
Q 14.109375 0 9.34375 5.484375 
Q 4.59375 10.984375 4.59375 20.609375 
Q 4.59375 28.171875 7.46875 35.421875 
Q 10.359375 42.671875 15.578125 48.296875 
Q 19.046875 52 23.65625 54 
Q 28.265625 56 33.296875 56 
Q 38.8125 56 42.90625 53.4375 
Q 47.015625 50.875 49.03125 46.1875 
L 50.59375 54.6875 
z
M 46.09375 34.625 
Q 46.09375 41.265625 42.96875 44.875 
Q 39.84375 48.484375 34.078125 48.484375 
Q 30.515625 48.484375 27.296875 47.0625 
Q 24.078125 45.65625 21.78125 43.109375 
Q 18.0625 38.921875 15.984375 33.234375 
Q 13.921875 27.546875 13.921875 21.484375 
Q 13.921875 14.75 17.0625 11.125 
Q 20.21875 7.515625 26.125 7.515625 
Q 34.671875 7.515625 40.375 15.25 
Q 46.09375 23 46.09375 34.625 
z
" id="DejaVuSans-Oblique-67"/>
      <path d="M 48.09375 32.234375 
Q 48.25 33.015625 48.3125 33.84375 
Q 48.390625 34.671875 48.390625 35.5 
Q 48.390625 41.453125 44.890625 44.921875 
Q 41.40625 48.390625 35.40625 48.390625 
Q 28.71875 48.390625 23.578125 44.15625 
Q 18.453125 39.9375 15.828125 32.171875 
z
M 55.90625 25.203125 
L 14.109375 25.203125 
Q 13.8125 23.34375 13.71875 22.265625 
Q 13.625 21.1875 13.625 20.40625 
Q 13.625 13.625 17.796875 9.90625 
Q 21.96875 6.203125 29.59375 6.203125 
Q 35.453125 6.203125 40.671875 7.515625 
Q 45.90625 8.84375 50.390625 11.375 
L 48.6875 2.484375 
Q 43.84375 0.53125 38.6875 -0.4375 
Q 33.546875 -1.421875 28.21875 -1.421875 
Q 16.84375 -1.421875 10.71875 4.015625 
Q 4.59375 9.46875 4.59375 19.484375 
Q 4.59375 28.03125 7.640625 35.375 
Q 10.6875 42.71875 16.609375 48.484375 
Q 20.40625 52.09375 25.65625 54.046875 
Q 30.90625 56 36.8125 56 
Q 46.09375 56 51.578125 50.4375 
Q 57.078125 44.875 57.078125 35.5 
Q 57.078125 33.25 56.78125 30.6875 
Q 56.5 28.125 55.90625 25.203125 
z
" id="DejaVuSans-Oblique-65"/>
      <path d="M 49.609375 33.6875 
Q 49.609375 40.875 46.484375 44.671875 
Q 43.359375 48.484375 37.5 48.484375 
Q 33.5 48.484375 29.859375 46.4375 
Q 26.21875 44.390625 23.390625 40.484375 
Q 20.609375 36.625 18.9375 31.15625 
Q 17.28125 25.6875 17.28125 20.3125 
Q 17.28125 13.484375 20.40625 9.796875 
Q 23.53125 6.109375 29.296875 6.109375 
Q 33.546875 6.109375 37.1875 8.109375 
Q 40.828125 10.109375 43.40625 13.921875 
Q 46.1875 17.921875 47.890625 23.34375 
Q 49.609375 28.765625 49.609375 33.6875 
z
M 21.78125 46.390625 
Q 25.390625 51.125 30.296875 53.5625 
Q 35.203125 56 41.21875 56 
Q 49.609375 56 54.25 50.5 
Q 58.890625 45.015625 58.890625 35.109375 
Q 58.890625 27 56 19.65625 
Q 53.125 12.3125 47.703125 6.5 
Q 44.09375 2.640625 39.546875 0.609375 
Q 35.015625 -1.421875 29.984375 -1.421875 
Q 24.171875 -1.421875 20.21875 1 
Q 16.265625 3.421875 14.3125 8.203125 
L 8.6875 -20.796875 
L -0.296875 -20.796875 
L 14.40625 54.6875 
L 23.390625 54.6875 
z
" id="DejaVuSans-Oblique-70"/>
      <path d="M 60.015625 54.6875 
L 34.90625 27.875 
L 50.296875 0 
L 39.984375 0 
L 28.421875 21.6875 
L 8.296875 0 
L -2.59375 0 
L 24.3125 28.8125 
L 10.015625 54.6875 
L 20.3125 54.6875 
L 30.8125 34.90625 
L 49.125 54.6875 
z
" id="DejaVuSans-Oblique-78"/>
      <path d="M 18.3125 75.984375 
L 27.296875 75.984375 
L 12.5 0 
L 3.515625 0 
z
" id="DejaVuSans-Oblique-6c"/>
      <path d="M 50 53.078125 
L 48.296875 44.578125 
Q 44.734375 46.53125 40.765625 47.5 
Q 36.8125 48.484375 32.625 48.484375 
Q 25.53125 48.484375 21.453125 46.0625 
Q 17.390625 43.65625 17.390625 39.5 
Q 17.390625 34.671875 26.859375 32.078125 
Q 27.59375 31.890625 27.9375 31.78125 
L 30.8125 30.90625 
Q 39.796875 28.421875 42.796875 25.6875 
Q 45.796875 22.953125 45.796875 18.21875 
Q 45.796875 9.515625 38.890625 4.046875 
Q 31.984375 -1.421875 20.796875 -1.421875 
Q 16.453125 -1.421875 11.671875 -0.578125 
Q 6.890625 0.25 1.125 2 
L 2.875 11.28125 
Q 7.8125 8.734375 12.59375 7.421875 
Q 17.390625 6.109375 21.78125 6.109375 
Q 28.375 6.109375 32.5 8.9375 
Q 36.625 11.765625 36.625 16.109375 
Q 36.625 20.796875 25.78125 23.6875 
L 24.859375 23.921875 
L 21.78125 24.703125 
Q 14.9375 26.515625 11.765625 29.46875 
Q 8.59375 32.421875 8.59375 37.015625 
Q 8.59375 45.75 15.15625 50.875 
Q 21.734375 56 33.015625 56 
Q 37.453125 56 41.671875 55.265625 
Q 45.90625 54.546875 50 53.078125 
z
" id="DejaVuSans-Oblique-73"/>
     </defs>
     <g transform="translate(224.140144 320.516777)scale(0.15 -0.15)">
      <use transform="translate(19 65.965625)scale(0.7)" xlink:href="#DejaVuSans-Oblique-41"/>
      <use transform="translate(66.885742 54.48125)scale(0.49)" xlink:href="#DejaVuSans-Oblique-69"/>
      <use transform="translate(80.499512 54.48125)scale(0.49)" xlink:href="#DejaVuSans-Oblique-6d"/>
      <use transform="translate(128.231445 54.48125)scale(0.49)" xlink:href="#DejaVuSans-Oblique-61"/>
      <use transform="translate(158.258301 54.48125)scale(0.49)" xlink:href="#DejaVuSans-Oblique-67"/>
      <use transform="translate(189.361816 54.48125)scale(0.49)" xlink:href="#DejaVuSans-Oblique-65"/>
      <use transform="translate(0 -50.123281)scale(0.7)" xlink:href="#DejaVuSans-Oblique-70"/>
      <use transform="translate(44.433594 -50.123281)scale(0.7)" xlink:href="#DejaVuSans-Oblique-69"/>
      <use transform="translate(63.881836 -50.123281)scale(0.7)" xlink:href="#DejaVuSans-Oblique-78"/>
      <use transform="translate(105.307617 -50.123281)scale(0.7)" xlink:href="#DejaVuSans-Oblique-65"/>
      <use transform="translate(148.374023 -50.123281)scale(0.7)" xlink:href="#DejaVuSans-Oblique-6c"/>
      <use transform="translate(167.822266 -50.123281)scale(0.7)" xlink:href="#DejaVuSans-Oblique-73"/>
      <use transform="translate(207.546919 -23.326406)scale(0.49)" xlink:href="#DejaVuSans-32"/>
      <path d="M 0 19.290781 
L 0 25.540781 
L 240.636275 25.540781 
L 240.636275 19.290781 
L 0 19.290781 
z
"/>
     </g>
    </g>
   </g>
   <g id="matplotlib.axis_2">
    <g id="ytick_1">
     <g id="line2d_11">
      <path clip-path="url(#p1bf3598baf)" d="M 72.4739 234.812816 
L 413.906388 234.812816 
" style="fill:none;stroke:#b0b0b0;stroke-linecap:square;stroke-width:0.8;"/>
     </g>
     <g id="line2d_12">
      <defs>
       <path d="M 0 0 
L -3.5 0 
" id="m03de96a6d7" style="stroke:#000000;stroke-width:0.8;"/>
      </defs>
      <g>
       <use style="stroke:#000000;stroke-width:0.8;" x="72.4739" xlink:href="#m03de96a6d7" y="234.812816"/>
      </g>
     </g>
     <g id="text_7">
      <!-- 0 -->
      <g transform="translate(59.1114 238.612035)scale(0.1 -0.1)">
       <use xlink:href="#DejaVuSans-30"/>
      </g>
     </g>
    </g>
    <g id="ytick_2">
     <g id="line2d_13">
      <path clip-path="url(#p1bf3598baf)" d="M 72.4739 209.496624 
L 413.906388 209.496624 
" style="fill:none;stroke:#b0b0b0;stroke-linecap:square;stroke-width:0.8;"/>
     </g>
     <g id="line2d_14">
      <g>
       <use style="stroke:#000000;stroke-width:0.8;" x="72.4739" xlink:href="#m03de96a6d7" y="209.496624"/>
      </g>
     </g>
     <g id="text_8">
      <!-- 500 -->
      <g transform="translate(46.3864 213.295843)scale(0.1 -0.1)">
       <use xlink:href="#DejaVuSans-35"/>
       <use x="63.623047" xlink:href="#DejaVuSans-30"/>
       <use x="127.246094" xlink:href="#DejaVuSans-30"/>
      </g>
     </g>
    </g>
    <g id="ytick_3">
     <g id="line2d_15">
      <path clip-path="url(#p1bf3598baf)" d="M 72.4739 184.180433 
L 413.906388 184.180433 
" style="fill:none;stroke:#b0b0b0;stroke-linecap:square;stroke-width:0.8;"/>
     </g>
     <g id="line2d_16">
      <g>
       <use style="stroke:#000000;stroke-width:0.8;" x="72.4739" xlink:href="#m03de96a6d7" y="184.180433"/>
      </g>
     </g>
     <g id="text_9">
      <!-- 1000 -->
      <g transform="translate(40.0239 187.979651)scale(0.1 -0.1)">
       <use xlink:href="#DejaVuSans-31"/>
       <use x="63.623047" xlink:href="#DejaVuSans-30"/>
       <use x="127.246094" xlink:href="#DejaVuSans-30"/>
       <use x="190.869141" xlink:href="#DejaVuSans-30"/>
      </g>
     </g>
    </g>
    <g id="ytick_4">
     <g id="line2d_17">
      <path clip-path="url(#p1bf3598baf)" d="M 72.4739 158.864241 
L 413.906388 158.864241 
" style="fill:none;stroke:#b0b0b0;stroke-linecap:square;stroke-width:0.8;"/>
     </g>
     <g id="line2d_18">
      <g>
       <use style="stroke:#000000;stroke-width:0.8;" x="72.4739" xlink:href="#m03de96a6d7" y="158.864241"/>
      </g>
     </g>
     <g id="text_10">
      <!-- 1500 -->
      <g transform="translate(40.0239 162.663459)scale(0.1 -0.1)">
       <use xlink:href="#DejaVuSans-31"/>
       <use x="63.623047" xlink:href="#DejaVuSans-35"/>
       <use x="127.246094" xlink:href="#DejaVuSans-30"/>
       <use x="190.869141" xlink:href="#DejaVuSans-30"/>
      </g>
     </g>
    </g>
    <g id="ytick_5">
     <g id="line2d_19">
      <path clip-path="url(#p1bf3598baf)" d="M 72.4739 133.548049 
L 413.906388 133.548049 
" style="fill:none;stroke:#b0b0b0;stroke-linecap:square;stroke-width:0.8;"/>
     </g>
     <g id="line2d_20">
      <g>
       <use style="stroke:#000000;stroke-width:0.8;" x="72.4739" xlink:href="#m03de96a6d7" y="133.548049"/>
      </g>
     </g>
     <g id="text_11">
      <!-- 2000 -->
      <g transform="translate(40.0239 137.347267)scale(0.1 -0.1)">
       <use xlink:href="#DejaVuSans-32"/>
       <use x="63.623047" xlink:href="#DejaVuSans-30"/>
       <use x="127.246094" xlink:href="#DejaVuSans-30"/>
       <use x="190.869141" xlink:href="#DejaVuSans-30"/>
      </g>
     </g>
    </g>
    <g id="ytick_6">
     <g id="line2d_21">
      <path clip-path="url(#p1bf3598baf)" d="M 72.4739 108.231857 
L 413.906388 108.231857 
" style="fill:none;stroke:#b0b0b0;stroke-linecap:square;stroke-width:0.8;"/>
     </g>
     <g id="line2d_22">
      <g>
       <use style="stroke:#000000;stroke-width:0.8;" x="72.4739" xlink:href="#m03de96a6d7" y="108.231857"/>
      </g>
     </g>
     <g id="text_12">
      <!-- 2500 -->
      <g transform="translate(40.0239 112.031075)scale(0.1 -0.1)">
       <use xlink:href="#DejaVuSans-32"/>
       <use x="63.623047" xlink:href="#DejaVuSans-35"/>
       <use x="127.246094" xlink:href="#DejaVuSans-30"/>
       <use x="190.869141" xlink:href="#DejaVuSans-30"/>
      </g>
     </g>
    </g>
    <g id="ytick_7">
     <g id="line2d_23">
      <path clip-path="url(#p1bf3598baf)" d="M 72.4739 82.915665 
L 413.906388 82.915665 
" style="fill:none;stroke:#b0b0b0;stroke-linecap:square;stroke-width:0.8;"/>
     </g>
     <g id="line2d_24">
      <g>
       <use style="stroke:#000000;stroke-width:0.8;" x="72.4739" xlink:href="#m03de96a6d7" y="82.915665"/>
      </g>
     </g>
     <g id="text_13">
      <!-- 3000 -->
      <defs>
       <path d="M 40.578125 39.3125 
Q 47.65625 37.796875 51.625 33 
Q 55.609375 28.21875 55.609375 21.1875 
Q 55.609375 10.40625 48.1875 4.484375 
Q 40.765625 -1.421875 27.09375 -1.421875 
Q 22.515625 -1.421875 17.65625 -0.515625 
Q 12.796875 0.390625 7.625 2.203125 
L 7.625 11.71875 
Q 11.71875 9.328125 16.59375 8.109375 
Q 21.484375 6.890625 26.8125 6.890625 
Q 36.078125 6.890625 40.9375 10.546875 
Q 45.796875 14.203125 45.796875 21.1875 
Q 45.796875 27.640625 41.28125 31.265625 
Q 36.765625 34.90625 28.71875 34.90625 
L 20.21875 34.90625 
L 20.21875 43.015625 
L 29.109375 43.015625 
Q 36.375 43.015625 40.234375 45.921875 
Q 44.09375 48.828125 44.09375 54.296875 
Q 44.09375 59.90625 40.109375 62.90625 
Q 36.140625 65.921875 28.71875 65.921875 
Q 24.65625 65.921875 20.015625 65.03125 
Q 15.375 64.15625 9.8125 62.3125 
L 9.8125 71.09375 
Q 15.4375 72.65625 20.34375 73.4375 
Q 25.25 74.21875 29.59375 74.21875 
Q 40.828125 74.21875 47.359375 69.109375 
Q 53.90625 64.015625 53.90625 55.328125 
Q 53.90625 49.265625 50.4375 45.09375 
Q 46.96875 40.921875 40.578125 39.3125 
z
" id="DejaVuSans-33"/>
      </defs>
      <g transform="translate(40.0239 86.714884)scale(0.1 -0.1)">
       <use xlink:href="#DejaVuSans-33"/>
       <use x="63.623047" xlink:href="#DejaVuSans-30"/>
       <use x="127.246094" xlink:href="#DejaVuSans-30"/>
       <use x="190.869141" xlink:href="#DejaVuSans-30"/>
      </g>
     </g>
    </g>
    <g id="ytick_8">
     <g id="line2d_25">
      <path clip-path="url(#p1bf3598baf)" d="M 72.4739 57.599473 
L 413.906388 57.599473 
" style="fill:none;stroke:#b0b0b0;stroke-linecap:square;stroke-width:0.8;"/>
     </g>
     <g id="line2d_26">
      <g>
       <use style="stroke:#000000;stroke-width:0.8;" x="72.4739" xlink:href="#m03de96a6d7" y="57.599473"/>
      </g>
     </g>
     <g id="text_14">
      <!-- 3500 -->
      <g transform="translate(40.0239 61.398692)scale(0.1 -0.1)">
       <use xlink:href="#DejaVuSans-33"/>
       <use x="63.623047" xlink:href="#DejaVuSans-35"/>
       <use x="127.246094" xlink:href="#DejaVuSans-30"/>
       <use x="190.869141" xlink:href="#DejaVuSans-30"/>
      </g>
     </g>
    </g>
    <g id="ytick_9">
     <g id="line2d_27">
      <path clip-path="url(#p1bf3598baf)" d="M 72.4739 32.283281 
L 413.906388 32.283281 
" style="fill:none;stroke:#b0b0b0;stroke-linecap:square;stroke-width:0.8;"/>
     </g>
     <g id="line2d_28">
      <g>
       <use style="stroke:#000000;stroke-width:0.8;" x="72.4739" xlink:href="#m03de96a6d7" y="32.283281"/>
      </g>
     </g>
     <g id="text_15">
      <!-- 4000 -->
      <defs>
       <path d="M 37.796875 64.3125 
L 12.890625 25.390625 
L 37.796875 25.390625 
z
M 35.203125 72.90625 
L 47.609375 72.90625 
L 47.609375 25.390625 
L 58.015625 25.390625 
L 58.015625 17.1875 
L 47.609375 17.1875 
L 47.609375 0 
L 37.796875 0 
L 37.796875 17.1875 
L 4.890625 17.1875 
L 4.890625 26.703125 
z
" id="DejaVuSans-34"/>
      </defs>
      <g transform="translate(40.0239 36.0825)scale(0.1 -0.1)">
       <use xlink:href="#DejaVuSans-34"/>
       <use x="63.623047" xlink:href="#DejaVuSans-30"/>
       <use x="127.246094" xlink:href="#DejaVuSans-30"/>
       <use x="190.869141" xlink:href="#DejaVuSans-30"/>
      </g>
     </g>
    </g>
    <g id="text_16">
     <!-- $\frac{t_{exec}}{\mu s}$ -->
     <defs>
      <path d="M 42.28125 54.6875 
L 40.921875 47.703125 
L 23 47.703125 
L 17.1875 18.015625 
Q 16.890625 16.359375 16.75 15.234375 
Q 16.609375 14.109375 16.609375 13.484375 
Q 16.609375 10.359375 18.484375 8.9375 
Q 20.359375 7.515625 24.515625 7.515625 
L 33.59375 7.515625 
L 32.078125 0 
L 23.484375 0 
Q 15.484375 0 11.546875 3.125 
Q 7.625 6.25 7.625 12.59375 
Q 7.625 13.71875 7.765625 15.0625 
Q 7.90625 16.40625 8.203125 18.015625 
L 14.015625 47.703125 
L 6.390625 47.703125 
L 7.8125 54.6875 
L 15.28125 54.6875 
L 18.3125 70.21875 
L 27.296875 70.21875 
L 24.3125 54.6875 
z
" id="DejaVuSans-Oblique-74"/>
      <path d="M 53.609375 52.59375 
L 51.8125 43.703125 
Q 48.578125 46.046875 44.9375 47.21875 
Q 41.3125 48.390625 37.40625 48.390625 
Q 33.109375 48.390625 29.21875 46.875 
Q 25.34375 45.359375 22.703125 42.578125 
Q 18.5 38.328125 16.203125 32.609375 
Q 13.921875 26.90625 13.921875 20.796875 
Q 13.921875 13.421875 17.609375 9.8125 
Q 21.296875 6.203125 28.8125 6.203125 
Q 32.515625 6.203125 36.6875 7.328125 
Q 40.875 8.453125 45.40625 10.6875 
L 43.703125 1.8125 
Q 39.796875 0.203125 35.671875 -0.609375 
Q 31.546875 -1.421875 27.203125 -1.421875 
Q 16.3125 -1.421875 10.453125 4.015625 
Q 4.59375 9.46875 4.59375 19.578125 
Q 4.59375 28.078125 7.640625 35.234375 
Q 10.6875 42.390625 16.703125 48.09375 
Q 20.796875 52 26.3125 54 
Q 31.84375 56 38.375 56 
Q 42.1875 56 45.9375 55.140625 
Q 49.703125 54.296875 53.609375 52.59375 
z
" id="DejaVuSans-Oblique-63"/>
      <path d="M -1.3125 -20.796875 
L 13.375 54.6875 
L 22.40625 54.6875 
L 15.765625 20.65625 
Q 15.578125 19.625 15.421875 18.359375 
Q 15.28125 17.09375 15.28125 15.828125 
Q 15.28125 11.28125 18.140625 8.828125 
Q 21 6.390625 26.3125 6.390625 
Q 33.546875 6.390625 37.984375 10.484375 
Q 42.4375 14.59375 44 22.796875 
L 50.203125 54.6875 
L 59.1875 54.6875 
L 51.03125 12.640625 
Q 50.828125 11.71875 50.75 11.03125 
Q 50.6875 10.359375 50.6875 9.8125 
Q 50.6875 8.296875 51.296875 7.59375 
Q 51.90625 6.890625 53.21875 6.890625 
Q 53.71875 6.890625 54.5625 7.125 
Q 55.421875 7.375 56.984375 8.015625 
L 55.609375 0.78125 
Q 53.46875 -0.296875 51.515625 -0.859375 
Q 49.5625 -1.421875 47.703125 -1.421875 
Q 44.484375 -1.421875 42.65625 0.625 
Q 40.828125 2.6875 40.828125 6.296875 
Q 38.09375 2.390625 34.296875 0.484375 
Q 30.515625 -1.421875 25.390625 -1.421875 
Q 20.84375 -1.421875 17.453125 0.671875 
Q 14.0625 2.78125 12.984375 6.203125 
L 7.71875 -20.796875 
z
" id="DejaVuSans-Oblique-3bc"/>
     </defs>
     <g transform="translate(29.7239 138.80208)rotate(-90)scale(0.15 -0.15)">
      <use transform="translate(0 56.846875)scale(0.7)" xlink:href="#DejaVuSans-Oblique-74"/>
      <use transform="translate(27.446289 45.3625)scale(0.49)" xlink:href="#DejaVuSans-Oblique-65"/>
      <use transform="translate(57.592773 45.3625)scale(0.49)" xlink:href="#DejaVuSans-Oblique-78"/>
      <use transform="translate(86.59082 45.3625)scale(0.49)" xlink:href="#DejaVuSans-Oblique-65"/>
      <use transform="translate(116.737305 45.3625)scale(0.49)" xlink:href="#DejaVuSans-Oblique-63"/>
      <use transform="translate(32 -25.784219)scale(0.7)" xlink:href="#DejaVuSans-Oblique-3bc"/>
      <use transform="translate(76.536133 -25.784219)scale(0.7)" xlink:href="#DejaVuSans-Oblique-73"/>
      <path d="M 0 19.665781 
L 0 25.915781 
L 145.591797 25.915781 
L 145.591797 19.665781 
L 0 19.665781 
z
"/>
     </g>
    </g>
   </g>
   <g id="line2d_29">
    <path clip-path="url(#p1bf3598baf)" d="M 87.993559 216.153112 
L 165.591851 196.007094 
L 243.190144 152.450637 
L 320.788436 89.352053 
L 398.386729 23.643371 
" style="fill:none;stroke:#1f77b4;stroke-dasharray:5.55,2.4;stroke-dashoffset:0;stroke-width:1.5;"/>
    <defs>
     <path d="M 0 3 
C 0.795609 3 1.55874 2.683901 2.12132 2.12132 
C 2.683901 1.55874 3 0.795609 3 0 
C 3 -0.795609 2.683901 -1.55874 2.12132 -2.12132 
C 1.55874 -2.683901 0.795609 -3 0 -3 
C -0.795609 -3 -1.55874 -2.683901 -2.12132 -2.12132 
C -2.683901 -1.55874 -3 -0.795609 -3 0 
C -3 0.795609 -2.683901 1.55874 -2.12132 2.12132 
C -1.55874 2.683901 -0.795609 3 0 3 
z
" id="md24f15eb02" style="stroke:#1f77b4;"/>
    </defs>
    <g clip-path="url(#p1bf3598baf)">
     <use style="fill:#1f77b4;stroke:#1f77b4;" x="87.993559" xlink:href="#md24f15eb02" y="216.153112"/>
     <use style="fill:#1f77b4;stroke:#1f77b4;" x="165.591851" xlink:href="#md24f15eb02" y="196.007094"/>
     <use style="fill:#1f77b4;stroke:#1f77b4;" x="243.190144" xlink:href="#md24f15eb02" y="152.450637"/>
     <use style="fill:#1f77b4;stroke:#1f77b4;" x="320.788436" xlink:href="#md24f15eb02" y="89.352053"/>
     <use style="fill:#1f77b4;stroke:#1f77b4;" x="398.386729" xlink:href="#md24f15eb02" y="23.643371"/>
    </g>
   </g>
   <g id="line2d_30">
    <path clip-path="url(#p1bf3598baf)" d="M 87.993559 230.110789 
L 165.591851 224.877477 
L 243.190144 217.596945 
L 320.788436 208.059829 
L 398.386729 196.722327 
" style="fill:none;stroke:#ff7f0e;stroke-dasharray:5.55,2.4;stroke-dashoffset:0;stroke-width:1.5;"/>
    <defs>
     <path d="M 0 3 
C 0.795609 3 1.55874 2.683901 2.12132 2.12132 
C 2.683901 1.55874 3 0.795609 3 0 
C 3 -0.795609 2.683901 -1.55874 2.12132 -2.12132 
C 1.55874 -2.683901 0.795609 -3 0 -3 
C -0.795609 -3 -1.55874 -2.683901 -2.12132 -2.12132 
C -2.683901 -1.55874 -3 -0.795609 -3 0 
C -3 0.795609 -2.683901 1.55874 -2.12132 2.12132 
C -1.55874 2.683901 -0.795609 3 0 3 
z
" id="m6c329d0e54" style="stroke:#ff7f0e;"/>
    </defs>
    <g clip-path="url(#p1bf3598baf)">
     <use style="fill:#ff7f0e;stroke:#ff7f0e;" x="87.993559" xlink:href="#m6c329d0e54" y="230.110789"/>
     <use style="fill:#ff7f0e;stroke:#ff7f0e;" x="165.591851" xlink:href="#m6c329d0e54" y="224.877477"/>
     <use style="fill:#ff7f0e;stroke:#ff7f0e;" x="243.190144" xlink:href="#m6c329d0e54" y="217.596945"/>
     <use style="fill:#ff7f0e;stroke:#ff7f0e;" x="320.788436" xlink:href="#m6c329d0e54" y="208.059829"/>
     <use style="fill:#ff7f0e;stroke:#ff7f0e;" x="398.386729" xlink:href="#m6c329d0e54" y="196.722327"/>
    </g>
   </g>
   <g id="line2d_31">
    <path clip-path="url(#p1bf3598baf)" d="M 87.993559 212.77897 
L 165.591851 197.15488 
L 243.190144 160.752322 
L 320.788436 136.579916 
L 398.386729 61.392851 
" style="fill:none;stroke:#2ca02c;stroke-dasharray:5.55,2.4;stroke-dashoffset:0;stroke-width:1.5;"/>
    <defs>
     <path d="M 0 3 
C 0.795609 3 1.55874 2.683901 2.12132 2.12132 
C 2.683901 1.55874 3 0.795609 3 0 
C 3 -0.795609 2.683901 -1.55874 2.12132 -2.12132 
C 1.55874 -2.683901 0.795609 -3 0 -3 
C -0.795609 -3 -1.55874 -2.683901 -2.12132 -2.12132 
C -2.683901 -1.55874 -3 -0.795609 -3 0 
C -3 0.795609 -2.683901 1.55874 -2.12132 2.12132 
C -1.55874 2.683901 -0.795609 3 0 3 
z
" id="m732941ccfe" style="stroke:#2ca02c;"/>
    </defs>
    <g clip-path="url(#p1bf3598baf)">
     <use style="fill:#2ca02c;stroke:#2ca02c;" x="87.993559" xlink:href="#m732941ccfe" y="212.77897"/>
     <use style="fill:#2ca02c;stroke:#2ca02c;" x="165.591851" xlink:href="#m732941ccfe" y="197.15488"/>
     <use style="fill:#2ca02c;stroke:#2ca02c;" x="243.190144" xlink:href="#m732941ccfe" y="160.752322"/>
     <use style="fill:#2ca02c;stroke:#2ca02c;" x="320.788436" xlink:href="#m732941ccfe" y="136.579916"/>
     <use style="fill:#2ca02c;stroke:#2ca02c;" x="398.386729" xlink:href="#m732941ccfe" y="61.392851"/>
    </g>
   </g>
   <g id="line2d_32">
    <path clip-path="url(#p1bf3598baf)" d="M 87.993559 225.661418 
L 165.591851 215.733522 
L 243.190144 211.544553 
L 320.788436 169.394257 
L 398.386729 139.331786 
" style="fill:none;stroke:#d62728;stroke-dasharray:5.55,2.4;stroke-dashoffset:0;stroke-width:1.5;"/>
    <defs>
     <path d="M 0 3 
C 0.795609 3 1.55874 2.683901 2.12132 2.12132 
C 2.683901 1.55874 3 0.795609 3 0 
C 3 -0.795609 2.683901 -1.55874 2.12132 -2.12132 
C 1.55874 -2.683901 0.795609 -3 0 -3 
C -0.795609 -3 -1.55874 -2.683901 -2.12132 -2.12132 
C -2.683901 -1.55874 -3 -0.795609 -3 0 
C -3 0.795609 -2.683901 1.55874 -2.12132 2.12132 
C -1.55874 2.683901 -0.795609 3 0 3 
z
" id="m65eda62989" style="stroke:#d62728;"/>
    </defs>
    <g clip-path="url(#p1bf3598baf)">
     <use style="fill:#d62728;stroke:#d62728;" x="87.993559" xlink:href="#m65eda62989" y="225.661418"/>
     <use style="fill:#d62728;stroke:#d62728;" x="165.591851" xlink:href="#m65eda62989" y="215.733522"/>
     <use style="fill:#d62728;stroke:#d62728;" x="243.190144" xlink:href="#m65eda62989" y="211.544553"/>
     <use style="fill:#d62728;stroke:#d62728;" x="320.788436" xlink:href="#m65eda62989" y="169.394257"/>
     <use style="fill:#d62728;stroke:#d62728;" x="398.386729" xlink:href="#m65eda62989" y="139.331786"/>
    </g>
   </g>
   <g id="line2d_33">
    <path clip-path="url(#p1bf3598baf)" d="M 87.993559 228.367111 
L 165.591851 218.836173 
L 243.190144 212.710869 
L 320.788436 184.109547 
L 398.386729 179.380483 
" style="fill:none;stroke:#9467bd;stroke-dasharray:5.55,2.4;stroke-dashoffset:0;stroke-width:1.5;"/>
    <defs>
     <path d="M 0 3 
C 0.795609 3 1.55874 2.683901 2.12132 2.12132 
C 2.683901 1.55874 3 0.795609 3 0 
C 3 -0.795609 2.683901 -1.55874 2.12132 -2.12132 
C 1.55874 -2.683901 0.795609 -3 0 -3 
C -0.795609 -3 -1.55874 -2.683901 -2.12132 -2.12132 
C -2.683901 -1.55874 -3 -0.795609 -3 0 
C -3 0.795609 -2.683901 1.55874 -2.12132 2.12132 
C -1.55874 2.683901 -0.795609 3 0 3 
z
" id="m13079066a0" style="stroke:#9467bd;"/>
    </defs>
    <g clip-path="url(#p1bf3598baf)">
     <use style="fill:#9467bd;stroke:#9467bd;" x="87.993559" xlink:href="#m13079066a0" y="228.367111"/>
     <use style="fill:#9467bd;stroke:#9467bd;" x="165.591851" xlink:href="#m13079066a0" y="218.836173"/>
     <use style="fill:#9467bd;stroke:#9467bd;" x="243.190144" xlink:href="#m13079066a0" y="212.710869"/>
     <use style="fill:#9467bd;stroke:#9467bd;" x="320.788436" xlink:href="#m13079066a0" y="184.109547"/>
     <use style="fill:#9467bd;stroke:#9467bd;" x="398.386729" xlink:href="#m13079066a0" y="179.380483"/>
    </g>
   </g>
   <g id="line2d_34">
    <path clip-path="url(#p1bf3598baf)" d="M 87.993559 228.00428 
L 165.591851 223.073496 
L 243.190144 208.465445 
L 320.788436 193.52469 
L 398.386729 182.123745 
" style="fill:none;stroke:#8c564b;stroke-dasharray:5.55,2.4;stroke-dashoffset:0;stroke-width:1.5;"/>
    <defs>
     <path d="M 0 3 
C 0.795609 3 1.55874 2.683901 2.12132 2.12132 
C 2.683901 1.55874 3 0.795609 3 0 
C 3 -0.795609 2.683901 -1.55874 2.12132 -2.12132 
C 1.55874 -2.683901 0.795609 -3 0 -3 
C -0.795609 -3 -1.55874 -2.683901 -2.12132 -2.12132 
C -2.683901 -1.55874 -3 -0.795609 -3 0 
C -3 0.795609 -2.683901 1.55874 -2.12132 2.12132 
C -1.55874 2.683901 -0.795609 3 0 3 
z
" id="ma3218d6b8f" style="stroke:#8c564b;"/>
    </defs>
    <g clip-path="url(#p1bf3598baf)">
     <use style="fill:#8c564b;stroke:#8c564b;" x="87.993559" xlink:href="#ma3218d6b8f" y="228.00428"/>
     <use style="fill:#8c564b;stroke:#8c564b;" x="165.591851" xlink:href="#ma3218d6b8f" y="223.073496"/>
     <use style="fill:#8c564b;stroke:#8c564b;" x="243.190144" xlink:href="#ma3218d6b8f" y="208.465445"/>
     <use style="fill:#8c564b;stroke:#8c564b;" x="320.788436" xlink:href="#ma3218d6b8f" y="193.52469"/>
     <use style="fill:#8c564b;stroke:#8c564b;" x="398.386729" xlink:href="#ma3218d6b8f" y="182.123745"/>
    </g>
   </g>
   <g id="patch_3">
    <path d="M 72.4739 240.43416 
L 72.4739 13.32 
" style="fill:none;stroke:#000000;stroke-linecap:square;stroke-linejoin:miter;stroke-width:0.8;"/>
   </g>
   <g id="patch_4">
    <path d="M 413.906388 240.43416 
L 413.906388 13.32 
" style="fill:none;stroke:#000000;stroke-linecap:square;stroke-linejoin:miter;stroke-width:0.8;"/>
   </g>
   <g id="patch_5">
    <path d="M 72.4739 240.43416 
L 413.906388 240.43416 
" style="fill:none;stroke:#000000;stroke-linecap:square;stroke-linejoin:miter;stroke-width:0.8;"/>
   </g>
   <g id="patch_6">
    <path d="M 72.4739 13.32 
L 413.906388 13.32 
" style="fill:none;stroke:#000000;stroke-linecap:square;stroke-linejoin:miter;stroke-width:0.8;"/>
   </g>
   <g id="legend_1">
    <g id="patch_7">
     <path d="M 79.4739 109.38875 
L 222.170775 109.38875 
Q 224.170775 109.38875 224.170775 107.38875 
L 224.170775 20.32 
Q 224.170775 18.32 222.170775 18.32 
L 79.4739 18.32 
Q 77.4739 18.32 77.4739 20.32 
L 77.4739 107.38875 
Q 77.4739 109.38875 79.4739 109.38875 
z
" style="fill:#ffffff;opacity:0.8;stroke:#cccccc;stroke-linejoin:miter;"/>
    </g>
    <g id="line2d_35">
     <path d="M 81.4739 26.418437 
L 101.4739 26.418437 
" style="fill:none;stroke:#1f77b4;stroke-dasharray:5.55,2.4;stroke-dashoffset:0;stroke-width:1.5;"/>
    </g>
    <g id="line2d_36">
     <g>
      <use style="fill:#1f77b4;stroke:#1f77b4;" x="91.4739" xlink:href="#md24f15eb02" y="26.418437"/>
     </g>
    </g>
    <g id="text_17">
     <!-- C -->
     <defs>
      <path d="M 64.40625 67.28125 
L 64.40625 56.890625 
Q 59.421875 61.53125 53.78125 63.8125 
Q 48.140625 66.109375 41.796875 66.109375 
Q 29.296875 66.109375 22.65625 58.46875 
Q 16.015625 50.828125 16.015625 36.375 
Q 16.015625 21.96875 22.65625 14.328125 
Q 29.296875 6.6875 41.796875 6.6875 
Q 48.140625 6.6875 53.78125 8.984375 
Q 59.421875 11.28125 64.40625 15.921875 
L 64.40625 5.609375 
Q 59.234375 2.09375 53.4375 0.328125 
Q 47.65625 -1.421875 41.21875 -1.421875 
Q 24.65625 -1.421875 15.125 8.703125 
Q 5.609375 18.84375 5.609375 36.375 
Q 5.609375 53.953125 15.125 64.078125 
Q 24.65625 74.21875 41.21875 74.21875 
Q 47.75 74.21875 53.53125 72.484375 
Q 59.328125 70.75 64.40625 67.28125 
z
" id="DejaVuSans-43"/>
     </defs>
     <g transform="translate(109.4739 29.918437)scale(0.1 -0.1)">
      <use xlink:href="#DejaVuSans-43"/>
     </g>
    </g>
    <g id="line2d_37">
     <path d="M 81.4739 41.096563 
L 101.4739 41.096563 
" style="fill:none;stroke:#ff7f0e;stroke-dasharray:5.55,2.4;stroke-dashoffset:0;stroke-width:1.5;"/>
    </g>
    <g id="line2d_38">
     <g>
      <use style="fill:#ff7f0e;stroke:#ff7f0e;" x="91.4739" xlink:href="#m6c329d0e54" y="41.096563"/>
     </g>
    </g>
    <g id="text_18">
     <!-- CUDA C -->
     <defs>
      <path d="M 8.6875 72.90625 
L 18.609375 72.90625 
L 18.609375 28.609375 
Q 18.609375 16.890625 22.84375 11.734375 
Q 27.09375 6.59375 36.625 6.59375 
Q 46.09375 6.59375 50.34375 11.734375 
Q 54.59375 16.890625 54.59375 28.609375 
L 54.59375 72.90625 
L 64.5 72.90625 
L 64.5 27.390625 
Q 64.5 13.140625 57.4375 5.859375 
Q 50.390625 -1.421875 36.625 -1.421875 
Q 22.796875 -1.421875 15.734375 5.859375 
Q 8.6875 13.140625 8.6875 27.390625 
z
" id="DejaVuSans-55"/>
      <path d="M 19.671875 64.796875 
L 19.671875 8.109375 
L 31.59375 8.109375 
Q 46.6875 8.109375 53.6875 14.9375 
Q 60.6875 21.78125 60.6875 36.53125 
Q 60.6875 51.171875 53.6875 57.984375 
Q 46.6875 64.796875 31.59375 64.796875 
z
M 9.8125 72.90625 
L 30.078125 72.90625 
Q 51.265625 72.90625 61.171875 64.09375 
Q 71.09375 55.28125 71.09375 36.53125 
Q 71.09375 17.671875 61.125 8.828125 
Q 51.171875 0 30.078125 0 
L 9.8125 0 
z
" id="DejaVuSans-44"/>
      <path d="M 34.1875 63.1875 
L 20.796875 26.90625 
L 47.609375 26.90625 
z
M 28.609375 72.90625 
L 39.796875 72.90625 
L 67.578125 0 
L 57.328125 0 
L 50.6875 18.703125 
L 17.828125 18.703125 
L 11.1875 0 
L 0.78125 0 
z
" id="DejaVuSans-41"/>
      <path id="DejaVuSans-20"/>
     </defs>
     <g transform="translate(109.4739 44.596563)scale(0.1 -0.1)">
      <use xlink:href="#DejaVuSans-43"/>
      <use x="69.824219" xlink:href="#DejaVuSans-55"/>
      <use x="143.017578" xlink:href="#DejaVuSans-44"/>
      <use x="220.003906" xlink:href="#DejaVuSans-41"/>
      <use x="288.412109" xlink:href="#DejaVuSans-20"/>
      <use x="320.199219" xlink:href="#DejaVuSans-43"/>
     </g>
    </g>
    <g id="line2d_39">
     <path d="M 81.4739 55.774687 
L 101.4739 55.774687 
" style="fill:none;stroke:#2ca02c;stroke-dasharray:5.55,2.4;stroke-dashoffset:0;stroke-width:1.5;"/>
    </g>
    <g id="line2d_40">
     <g>
      <use style="fill:#2ca02c;stroke:#2ca02c;" x="91.4739" xlink:href="#m732941ccfe" y="55.774687"/>
     </g>
    </g>
    <g id="text_19">
     <!-- C + OpenMP (1 core) -->
     <defs>
      <path d="M 46 62.703125 
L 46 35.5 
L 73.1875 35.5 
L 73.1875 27.203125 
L 46 27.203125 
L 46 0 
L 37.796875 0 
L 37.796875 27.203125 
L 10.59375 27.203125 
L 10.59375 35.5 
L 37.796875 35.5 
L 37.796875 62.703125 
z
" id="DejaVuSans-2b"/>
      <path d="M 39.40625 66.21875 
Q 28.65625 66.21875 22.328125 58.203125 
Q 16.015625 50.203125 16.015625 36.375 
Q 16.015625 22.609375 22.328125 14.59375 
Q 28.65625 6.59375 39.40625 6.59375 
Q 50.140625 6.59375 56.421875 14.59375 
Q 62.703125 22.609375 62.703125 36.375 
Q 62.703125 50.203125 56.421875 58.203125 
Q 50.140625 66.21875 39.40625 66.21875 
z
M 39.40625 74.21875 
Q 54.734375 74.21875 63.90625 63.9375 
Q 73.09375 53.65625 73.09375 36.375 
Q 73.09375 19.140625 63.90625 8.859375 
Q 54.734375 -1.421875 39.40625 -1.421875 
Q 24.03125 -1.421875 14.8125 8.828125 
Q 5.609375 19.09375 5.609375 36.375 
Q 5.609375 53.65625 14.8125 63.9375 
Q 24.03125 74.21875 39.40625 74.21875 
z
" id="DejaVuSans-4f"/>
      <path d="M 18.109375 8.203125 
L 18.109375 -20.796875 
L 9.078125 -20.796875 
L 9.078125 54.6875 
L 18.109375 54.6875 
L 18.109375 46.390625 
Q 20.953125 51.265625 25.265625 53.625 
Q 29.59375 56 35.59375 56 
Q 45.5625 56 51.78125 48.09375 
Q 58.015625 40.1875 58.015625 27.296875 
Q 58.015625 14.40625 51.78125 6.484375 
Q 45.5625 -1.421875 35.59375 -1.421875 
Q 29.59375 -1.421875 25.265625 0.953125 
Q 20.953125 3.328125 18.109375 8.203125 
z
M 48.6875 27.296875 
Q 48.6875 37.203125 44.609375 42.84375 
Q 40.53125 48.484375 33.40625 48.484375 
Q 26.265625 48.484375 22.1875 42.84375 
Q 18.109375 37.203125 18.109375 27.296875 
Q 18.109375 17.390625 22.1875 11.75 
Q 26.265625 6.109375 33.40625 6.109375 
Q 40.53125 6.109375 44.609375 11.75 
Q 48.6875 17.390625 48.6875 27.296875 
z
" id="DejaVuSans-70"/>
      <path d="M 56.203125 29.59375 
L 56.203125 25.203125 
L 14.890625 25.203125 
Q 15.484375 15.921875 20.484375 11.0625 
Q 25.484375 6.203125 34.421875 6.203125 
Q 39.59375 6.203125 44.453125 7.46875 
Q 49.3125 8.734375 54.109375 11.28125 
L 54.109375 2.78125 
Q 49.265625 0.734375 44.1875 -0.34375 
Q 39.109375 -1.421875 33.890625 -1.421875 
Q 20.796875 -1.421875 13.15625 6.1875 
Q 5.515625 13.8125 5.515625 26.8125 
Q 5.515625 40.234375 12.765625 48.109375 
Q 20.015625 56 32.328125 56 
Q 43.359375 56 49.78125 48.890625 
Q 56.203125 41.796875 56.203125 29.59375 
z
M 47.21875 32.234375 
Q 47.125 39.59375 43.09375 43.984375 
Q 39.0625 48.390625 32.421875 48.390625 
Q 24.90625 48.390625 20.390625 44.140625 
Q 15.875 39.890625 15.1875 32.171875 
z
" id="DejaVuSans-65"/>
      <path d="M 54.890625 33.015625 
L 54.890625 0 
L 45.90625 0 
L 45.90625 32.71875 
Q 45.90625 40.484375 42.875 44.328125 
Q 39.84375 48.1875 33.796875 48.1875 
Q 26.515625 48.1875 22.3125 43.546875 
Q 18.109375 38.921875 18.109375 30.90625 
L 18.109375 0 
L 9.078125 0 
L 9.078125 54.6875 
L 18.109375 54.6875 
L 18.109375 46.1875 
Q 21.34375 51.125 25.703125 53.5625 
Q 30.078125 56 35.796875 56 
Q 45.21875 56 50.046875 50.171875 
Q 54.890625 44.34375 54.890625 33.015625 
z
" id="DejaVuSans-6e"/>
      <path d="M 9.8125 72.90625 
L 24.515625 72.90625 
L 43.109375 23.296875 
L 61.8125 72.90625 
L 76.515625 72.90625 
L 76.515625 0 
L 66.890625 0 
L 66.890625 64.015625 
L 48.09375 14.015625 
L 38.1875 14.015625 
L 19.390625 64.015625 
L 19.390625 0 
L 9.8125 0 
z
" id="DejaVuSans-4d"/>
      <path d="M 19.671875 64.796875 
L 19.671875 37.40625 
L 32.078125 37.40625 
Q 38.96875 37.40625 42.71875 40.96875 
Q 46.484375 44.53125 46.484375 51.125 
Q 46.484375 57.671875 42.71875 61.234375 
Q 38.96875 64.796875 32.078125 64.796875 
z
M 9.8125 72.90625 
L 32.078125 72.90625 
Q 44.34375 72.90625 50.609375 67.359375 
Q 56.890625 61.8125 56.890625 51.125 
Q 56.890625 40.328125 50.609375 34.8125 
Q 44.34375 29.296875 32.078125 29.296875 
L 19.671875 29.296875 
L 19.671875 0 
L 9.8125 0 
z
" id="DejaVuSans-50"/>
      <path d="M 31 75.875 
Q 24.46875 64.65625 21.28125 53.65625 
Q 18.109375 42.671875 18.109375 31.390625 
Q 18.109375 20.125 21.3125 9.0625 
Q 24.515625 -2 31 -13.1875 
L 23.1875 -13.1875 
Q 15.875 -1.703125 12.234375 9.375 
Q 8.59375 20.453125 8.59375 31.390625 
Q 8.59375 42.28125 12.203125 53.3125 
Q 15.828125 64.359375 23.1875 75.875 
z
" id="DejaVuSans-28"/>
      <path d="M 48.78125 52.59375 
L 48.78125 44.1875 
Q 44.96875 46.296875 41.140625 47.34375 
Q 37.3125 48.390625 33.40625 48.390625 
Q 24.65625 48.390625 19.8125 42.84375 
Q 14.984375 37.3125 14.984375 27.296875 
Q 14.984375 17.28125 19.8125 11.734375 
Q 24.65625 6.203125 33.40625 6.203125 
Q 37.3125 6.203125 41.140625 7.25 
Q 44.96875 8.296875 48.78125 10.40625 
L 48.78125 2.09375 
Q 45.015625 0.34375 40.984375 -0.53125 
Q 36.96875 -1.421875 32.421875 -1.421875 
Q 20.0625 -1.421875 12.78125 6.34375 
Q 5.515625 14.109375 5.515625 27.296875 
Q 5.515625 40.671875 12.859375 48.328125 
Q 20.21875 56 33.015625 56 
Q 37.15625 56 41.109375 55.140625 
Q 45.0625 54.296875 48.78125 52.59375 
z
" id="DejaVuSans-63"/>
      <path d="M 30.609375 48.390625 
Q 23.390625 48.390625 19.1875 42.75 
Q 14.984375 37.109375 14.984375 27.296875 
Q 14.984375 17.484375 19.15625 11.84375 
Q 23.34375 6.203125 30.609375 6.203125 
Q 37.796875 6.203125 41.984375 11.859375 
Q 46.1875 17.53125 46.1875 27.296875 
Q 46.1875 37.015625 41.984375 42.703125 
Q 37.796875 48.390625 30.609375 48.390625 
z
M 30.609375 56 
Q 42.328125 56 49.015625 48.375 
Q 55.71875 40.765625 55.71875 27.296875 
Q 55.71875 13.875 49.015625 6.21875 
Q 42.328125 -1.421875 30.609375 -1.421875 
Q 18.84375 -1.421875 12.171875 6.21875 
Q 5.515625 13.875 5.515625 27.296875 
Q 5.515625 40.765625 12.171875 48.375 
Q 18.84375 56 30.609375 56 
z
" id="DejaVuSans-6f"/>
      <path d="M 41.109375 46.296875 
Q 39.59375 47.171875 37.8125 47.578125 
Q 36.03125 48 33.890625 48 
Q 26.265625 48 22.1875 43.046875 
Q 18.109375 38.09375 18.109375 28.8125 
L 18.109375 0 
L 9.078125 0 
L 9.078125 54.6875 
L 18.109375 54.6875 
L 18.109375 46.1875 
Q 20.953125 51.171875 25.484375 53.578125 
Q 30.03125 56 36.53125 56 
Q 37.453125 56 38.578125 55.875 
Q 39.703125 55.765625 41.0625 55.515625 
z
" id="DejaVuSans-72"/>
      <path d="M 8.015625 75.875 
L 15.828125 75.875 
Q 23.140625 64.359375 26.78125 53.3125 
Q 30.421875 42.28125 30.421875 31.390625 
Q 30.421875 20.453125 26.78125 9.375 
Q 23.140625 -1.703125 15.828125 -13.1875 
L 8.015625 -13.1875 
Q 14.5 -2 17.703125 9.0625 
Q 20.90625 20.125 20.90625 31.390625 
Q 20.90625 42.671875 17.703125 53.65625 
Q 14.5 64.65625 8.015625 75.875 
z
" id="DejaVuSans-29"/>
     </defs>
     <g transform="translate(109.4739 59.274687)scale(0.1 -0.1)">
      <use xlink:href="#DejaVuSans-43"/>
      <use x="69.824219" xlink:href="#DejaVuSans-20"/>
      <use x="101.611328" xlink:href="#DejaVuSans-2b"/>
      <use x="185.400391" xlink:href="#DejaVuSans-20"/>
      <use x="217.1875" xlink:href="#DejaVuSans-4f"/>
      <use x="295.898438" xlink:href="#DejaVuSans-70"/>
      <use x="359.375" xlink:href="#DejaVuSans-65"/>
      <use x="420.898438" xlink:href="#DejaVuSans-6e"/>
      <use x="484.277344" xlink:href="#DejaVuSans-4d"/>
      <use x="570.556641" xlink:href="#DejaVuSans-50"/>
      <use x="630.859375" xlink:href="#DejaVuSans-20"/>
      <use x="662.646484" xlink:href="#DejaVuSans-28"/>
      <use x="701.660156" xlink:href="#DejaVuSans-31"/>
      <use x="765.283203" xlink:href="#DejaVuSans-20"/>
      <use x="797.070312" xlink:href="#DejaVuSans-63"/>
      <use x="852.050781" xlink:href="#DejaVuSans-6f"/>
      <use x="913.232422" xlink:href="#DejaVuSans-72"/>
      <use x="954.314453" xlink:href="#DejaVuSans-65"/>
      <use x="1015.837891" xlink:href="#DejaVuSans-29"/>
     </g>
    </g>
    <g id="line2d_41">
     <path d="M 81.4739 70.452812 
L 101.4739 70.452812 
" style="fill:none;stroke:#d62728;stroke-dasharray:5.55,2.4;stroke-dashoffset:0;stroke-width:1.5;"/>
    </g>
    <g id="line2d_42">
     <g>
      <use style="fill:#d62728;stroke:#d62728;" x="91.4739" xlink:href="#m65eda62989" y="70.452812"/>
     </g>
    </g>
    <g id="text_20">
     <!-- C + OpenMP (2 cores) -->
     <defs>
      <path d="M 44.28125 53.078125 
L 44.28125 44.578125 
Q 40.484375 46.53125 36.375 47.5 
Q 32.28125 48.484375 27.875 48.484375 
Q 21.1875 48.484375 17.84375 46.4375 
Q 14.5 44.390625 14.5 40.28125 
Q 14.5 37.15625 16.890625 35.375 
Q 19.28125 33.59375 26.515625 31.984375 
L 29.59375 31.296875 
Q 39.15625 29.25 43.1875 25.515625 
Q 47.21875 21.78125 47.21875 15.09375 
Q 47.21875 7.46875 41.1875 3.015625 
Q 35.15625 -1.421875 24.609375 -1.421875 
Q 20.21875 -1.421875 15.453125 -0.5625 
Q 10.6875 0.296875 5.421875 2 
L 5.421875 11.28125 
Q 10.40625 8.6875 15.234375 7.390625 
Q 20.0625 6.109375 24.8125 6.109375 
Q 31.15625 6.109375 34.5625 8.28125 
Q 37.984375 10.453125 37.984375 14.40625 
Q 37.984375 18.0625 35.515625 20.015625 
Q 33.0625 21.96875 24.703125 23.78125 
L 21.578125 24.515625 
Q 13.234375 26.265625 9.515625 29.90625 
Q 5.8125 33.546875 5.8125 39.890625 
Q 5.8125 47.609375 11.28125 51.796875 
Q 16.75 56 26.8125 56 
Q 31.78125 56 36.171875 55.265625 
Q 40.578125 54.546875 44.28125 53.078125 
z
" id="DejaVuSans-73"/>
     </defs>
     <g transform="translate(109.4739 73.952812)scale(0.1 -0.1)">
      <use xlink:href="#DejaVuSans-43"/>
      <use x="69.824219" xlink:href="#DejaVuSans-20"/>
      <use x="101.611328" xlink:href="#DejaVuSans-2b"/>
      <use x="185.400391" xlink:href="#DejaVuSans-20"/>
      <use x="217.1875" xlink:href="#DejaVuSans-4f"/>
      <use x="295.898438" xlink:href="#DejaVuSans-70"/>
      <use x="359.375" xlink:href="#DejaVuSans-65"/>
      <use x="420.898438" xlink:href="#DejaVuSans-6e"/>
      <use x="484.277344" xlink:href="#DejaVuSans-4d"/>
      <use x="570.556641" xlink:href="#DejaVuSans-50"/>
      <use x="630.859375" xlink:href="#DejaVuSans-20"/>
      <use x="662.646484" xlink:href="#DejaVuSans-28"/>
      <use x="701.660156" xlink:href="#DejaVuSans-32"/>
      <use x="765.283203" xlink:href="#DejaVuSans-20"/>
      <use x="797.070312" xlink:href="#DejaVuSans-63"/>
      <use x="852.050781" xlink:href="#DejaVuSans-6f"/>
      <use x="913.232422" xlink:href="#DejaVuSans-72"/>
      <use x="954.314453" xlink:href="#DejaVuSans-65"/>
      <use x="1015.837891" xlink:href="#DejaVuSans-73"/>
      <use x="1067.9375" xlink:href="#DejaVuSans-29"/>
     </g>
    </g>
    <g id="line2d_43">
     <path d="M 81.4739 85.130938 
L 101.4739 85.130938 
" style="fill:none;stroke:#9467bd;stroke-dasharray:5.55,2.4;stroke-dashoffset:0;stroke-width:1.5;"/>
    </g>
    <g id="line2d_44">
     <g>
      <use style="fill:#9467bd;stroke:#9467bd;" x="91.4739" xlink:href="#m13079066a0" y="85.130938"/>
     </g>
    </g>
    <g id="text_21">
     <!-- C + OpenMP (3 cores) -->
     <g transform="translate(109.4739 88.630938)scale(0.1 -0.1)">
      <use xlink:href="#DejaVuSans-43"/>
      <use x="69.824219" xlink:href="#DejaVuSans-20"/>
      <use x="101.611328" xlink:href="#DejaVuSans-2b"/>
      <use x="185.400391" xlink:href="#DejaVuSans-20"/>
      <use x="217.1875" xlink:href="#DejaVuSans-4f"/>
      <use x="295.898438" xlink:href="#DejaVuSans-70"/>
      <use x="359.375" xlink:href="#DejaVuSans-65"/>
      <use x="420.898438" xlink:href="#DejaVuSans-6e"/>
      <use x="484.277344" xlink:href="#DejaVuSans-4d"/>
      <use x="570.556641" xlink:href="#DejaVuSans-50"/>
      <use x="630.859375" xlink:href="#DejaVuSans-20"/>
      <use x="662.646484" xlink:href="#DejaVuSans-28"/>
      <use x="701.660156" xlink:href="#DejaVuSans-33"/>
      <use x="765.283203" xlink:href="#DejaVuSans-20"/>
      <use x="797.070312" xlink:href="#DejaVuSans-63"/>
      <use x="852.050781" xlink:href="#DejaVuSans-6f"/>
      <use x="913.232422" xlink:href="#DejaVuSans-72"/>
      <use x="954.314453" xlink:href="#DejaVuSans-65"/>
      <use x="1015.837891" xlink:href="#DejaVuSans-73"/>
      <use x="1067.9375" xlink:href="#DejaVuSans-29"/>
     </g>
    </g>
    <g id="line2d_45">
     <path d="M 81.4739 99.809062 
L 101.4739 99.809062 
" style="fill:none;stroke:#8c564b;stroke-dasharray:5.55,2.4;stroke-dashoffset:0;stroke-width:1.5;"/>
    </g>
    <g id="line2d_46">
     <g>
      <use style="fill:#8c564b;stroke:#8c564b;" x="91.4739" xlink:href="#ma3218d6b8f" y="99.809062"/>
     </g>
    </g>
    <g id="text_22">
     <!-- C + OpenMP (4 cores) -->
     <g transform="translate(109.4739 103.309062)scale(0.1 -0.1)">
      <use xlink:href="#DejaVuSans-43"/>
      <use x="69.824219" xlink:href="#DejaVuSans-20"/>
      <use x="101.611328" xlink:href="#DejaVuSans-2b"/>
      <use x="185.400391" xlink:href="#DejaVuSans-20"/>
      <use x="217.1875" xlink:href="#DejaVuSans-4f"/>
      <use x="295.898438" xlink:href="#DejaVuSans-70"/>
      <use x="359.375" xlink:href="#DejaVuSans-65"/>
      <use x="420.898438" xlink:href="#DejaVuSans-6e"/>
      <use x="484.277344" xlink:href="#DejaVuSans-4d"/>
      <use x="570.556641" xlink:href="#DejaVuSans-50"/>
      <use x="630.859375" xlink:href="#DejaVuSans-20"/>
      <use x="662.646484" xlink:href="#DejaVuSans-28"/>
      <use x="701.660156" xlink:href="#DejaVuSans-34"/>
      <use x="765.283203" xlink:href="#DejaVuSans-20"/>
      <use x="797.070312" xlink:href="#DejaVuSans-63"/>
      <use x="852.050781" xlink:href="#DejaVuSans-6f"/>
      <use x="913.232422" xlink:href="#DejaVuSans-72"/>
      <use x="954.314453" xlink:href="#DejaVuSans-65"/>
      <use x="1015.837891" xlink:href="#DejaVuSans-73"/>
      <use x="1067.9375" xlink:href="#DejaVuSans-29"/>
     </g>
    </g>
   </g>
  </g>
 </g>
 <defs>
  <clipPath id="p1bf3598baf">
   <rect height="227.11416" width="341.432488" x="72.4739" y="13.32"/>
  </clipPath>
 </defs>
</svg>
