<?xml version="1.0" encoding="utf-8" standalone="no"?>
<!DOCTYPE svg PUBLIC "-//W3C//DTD SVG 1.1//EN"
  "http://www.w3.org/Graphics/SVG/1.1/DTD/svg11.dtd">
<!-- Created with matplotlib (http://matplotlib.org/) -->
<svg height="345pt" version="1.1" viewBox="0 0 460 345" width="460pt" xmlns="http://www.w3.org/2000/svg" xmlns:xlink="http://www.w3.org/1999/xlink">
 <defs>
  <style type="text/css">
*{stroke-linecap:butt;stroke-linejoin:round;}
  </style>
 </defs>
 <g id="figure_1">
  <g id="patch_1">
   <path d="M 0 345.6 
L 460.8 345.6 
L 460.8 0 
L 0 0 
z
" style="fill:#ffffff;"/>
  </g>
  <g id="axes_1">
   <g id="patch_2">
    <path d="M 57.6 307.584 
L 219.927273 307.584 
L 219.927273 41.472 
L 57.6 41.472 
z
" style="fill:#ffffff;"/>
   </g>
   <g id="matplotlib.axis_1">
    <g id="xtick_1">
     <g id="line2d_1">
      <path clip-path="url(#p7fb0191442)" d="M 65.716364 307.584 
L 65.716364 41.472 
" style="fill:none;stroke:#b0b0b0;stroke-linecap:square;stroke-width:0.8;"/>
     </g>
     <g id="line2d_2">
      <defs>
       <path d="M 0 0 
L 0 3.5 
" id="mf7c667b445" style="stroke:#000000;stroke-width:0.8;"/>
      </defs>
      <g>
       <use style="stroke:#000000;stroke-width:0.8;" x="65.716364" xlink:href="#mf7c667b445" y="307.584"/>
      </g>
     </g>
     <g id="text_1">
      <!-- $10 \times 10$ -->
      <defs>
       <path d="M 12.40625 8.296875 
L 28.515625 8.296875 
L 28.515625 63.921875 
L 10.984375 60.40625 
L 10.984375 69.390625 
L 28.421875 72.90625 
L 38.28125 72.90625 
L 38.28125 8.296875 
L 54.390625 8.296875 
L 54.390625 0 
L 12.40625 0 
z
" id="DejaVuSans-31"/>
       <path d="M 31.78125 66.40625 
Q 24.171875 66.40625 20.328125 58.90625 
Q 16.5 51.421875 16.5 36.375 
Q 16.5 21.390625 20.328125 13.890625 
Q 24.171875 6.390625 31.78125 6.390625 
Q 39.453125 6.390625 43.28125 13.890625 
Q 47.125 21.390625 47.125 36.375 
Q 47.125 51.421875 43.28125 58.90625 
Q 39.453125 66.40625 31.78125 66.40625 
z
M 31.78125 74.21875 
Q 44.046875 74.21875 50.515625 64.515625 
Q 56.984375 54.828125 56.984375 36.375 
Q 56.984375 17.96875 50.515625 8.265625 
Q 44.046875 -1.421875 31.78125 -1.421875 
Q 19.53125 -1.421875 13.0625 8.265625 
Q 6.59375 17.96875 6.59375 36.375 
Q 6.59375 54.828125 13.0625 64.515625 
Q 19.53125 74.21875 31.78125 74.21875 
z
" id="DejaVuSans-30"/>
       <path d="M 70.125 53.71875 
L 47.796875 31.296875 
L 70.125 8.984375 
L 64.3125 3.078125 
L 41.890625 25.484375 
L 19.484375 3.078125 
L 13.71875 8.984375 
L 35.984375 31.296875 
L 13.71875 53.71875 
L 19.484375 59.625 
L 41.890625 37.203125 
L 64.3125 59.625 
z
" id="DejaVuSans-d7"/>
      </defs>
      <g transform="translate(67.186925 319.956907)rotate(-315)scale(0.1 -0.1)">
       <use transform="translate(0 0.78125)" xlink:href="#DejaVuSans-31"/>
       <use transform="translate(63.623047 0.78125)" xlink:href="#DejaVuSans-30"/>
       <use transform="translate(146.728516 0.78125)" xlink:href="#DejaVuSans-d7"/>
       <use transform="translate(250 0.78125)" xlink:href="#DejaVuSans-31"/>
       <use transform="translate(313.623047 0.78125)" xlink:href="#DejaVuSans-30"/>
      </g>
     </g>
    </g>
    <g id="xtick_2">
     <g id="line2d_3">
      <path clip-path="url(#p7fb0191442)" d="M 81.949091 307.584 
L 81.949091 41.472 
" style="fill:none;stroke:#b0b0b0;stroke-linecap:square;stroke-width:0.8;"/>
     </g>
     <g id="line2d_4">
      <g>
       <use style="stroke:#000000;stroke-width:0.8;" x="81.949091" xlink:href="#mf7c667b445" y="307.584"/>
      </g>
     </g>
     <g id="text_2">
      <!-- $20 \times 20$ -->
      <defs>
       <path d="M 19.1875 8.296875 
L 53.609375 8.296875 
L 53.609375 0 
L 7.328125 0 
L 7.328125 8.296875 
Q 12.9375 14.109375 22.625 23.890625 
Q 32.328125 33.6875 34.8125 36.53125 
Q 39.546875 41.84375 41.421875 45.53125 
Q 43.3125 49.21875 43.3125 52.78125 
Q 43.3125 58.59375 39.234375 62.25 
Q 35.15625 65.921875 28.609375 65.921875 
Q 23.96875 65.921875 18.8125 64.3125 
Q 13.671875 62.703125 7.8125 59.421875 
L 7.8125 69.390625 
Q 13.765625 71.78125 18.9375 73 
Q 24.125 74.21875 28.421875 74.21875 
Q 39.75 74.21875 46.484375 68.546875 
Q 53.21875 62.890625 53.21875 53.421875 
Q 53.21875 48.921875 51.53125 44.890625 
Q 49.859375 40.875 45.40625 35.40625 
Q 44.1875 33.984375 37.640625 27.21875 
Q 31.109375 20.453125 19.1875 8.296875 
z
" id="DejaVuSans-32"/>
      </defs>
      <g transform="translate(83.419652 319.956907)rotate(-315)scale(0.1 -0.1)">
       <use transform="translate(0 0.78125)" xlink:href="#DejaVuSans-32"/>
       <use transform="translate(63.623047 0.78125)" xlink:href="#DejaVuSans-30"/>
       <use transform="translate(146.728516 0.78125)" xlink:href="#DejaVuSans-d7"/>
       <use transform="translate(250 0.78125)" xlink:href="#DejaVuSans-32"/>
       <use transform="translate(313.623047 0.78125)" xlink:href="#DejaVuSans-30"/>
      </g>
     </g>
    </g>
    <g id="xtick_3">
     <g id="line2d_5">
      <path clip-path="url(#p7fb0191442)" d="M 98.181818 307.584 
L 98.181818 41.472 
" style="fill:none;stroke:#b0b0b0;stroke-linecap:square;stroke-width:0.8;"/>
     </g>
     <g id="line2d_6">
      <g>
       <use style="stroke:#000000;stroke-width:0.8;" x="98.181818" xlink:href="#mf7c667b445" y="307.584"/>
      </g>
     </g>
     <g id="text_3">
      <!-- $30 \times 30$ -->
      <defs>
       <path d="M 40.578125 39.3125 
Q 47.65625 37.796875 51.625 33 
Q 55.609375 28.21875 55.609375 21.1875 
Q 55.609375 10.40625 48.1875 4.484375 
Q 40.765625 -1.421875 27.09375 -1.421875 
Q 22.515625 -1.421875 17.65625 -0.515625 
Q 12.796875 0.390625 7.625 2.203125 
L 7.625 11.71875 
Q 11.71875 9.328125 16.59375 8.109375 
Q 21.484375 6.890625 26.8125 6.890625 
Q 36.078125 6.890625 40.9375 10.546875 
Q 45.796875 14.203125 45.796875 21.1875 
Q 45.796875 27.640625 41.28125 31.265625 
Q 36.765625 34.90625 28.71875 34.90625 
L 20.21875 34.90625 
L 20.21875 43.015625 
L 29.109375 43.015625 
Q 36.375 43.015625 40.234375 45.921875 
Q 44.09375 48.828125 44.09375 54.296875 
Q 44.09375 59.90625 40.109375 62.90625 
Q 36.140625 65.921875 28.71875 65.921875 
Q 24.65625 65.921875 20.015625 65.03125 
Q 15.375 64.15625 9.8125 62.3125 
L 9.8125 71.09375 
Q 15.4375 72.65625 20.34375 73.4375 
Q 25.25 74.21875 29.59375 74.21875 
Q 40.828125 74.21875 47.359375 69.109375 
Q 53.90625 64.015625 53.90625 55.328125 
Q 53.90625 49.265625 50.4375 45.09375 
Q 46.96875 40.921875 40.578125 39.3125 
z
" id="DejaVuSans-33"/>
      </defs>
      <g transform="translate(99.652379 319.956907)rotate(-315)scale(0.1 -0.1)">
       <use transform="translate(0 0.78125)" xlink:href="#DejaVuSans-33"/>
       <use transform="translate(63.623047 0.78125)" xlink:href="#DejaVuSans-30"/>
       <use transform="translate(146.728516 0.78125)" xlink:href="#DejaVuSans-d7"/>
       <use transform="translate(250 0.78125)" xlink:href="#DejaVuSans-33"/>
       <use transform="translate(313.623047 0.78125)" xlink:href="#DejaVuSans-30"/>
      </g>
     </g>
    </g>
    <g id="xtick_4">
     <g id="line2d_7">
      <path clip-path="url(#p7fb0191442)" d="M 114.414545 307.584 
L 114.414545 41.472 
" style="fill:none;stroke:#b0b0b0;stroke-linecap:square;stroke-width:0.8;"/>
     </g>
     <g id="line2d_8">
      <g>
       <use style="stroke:#000000;stroke-width:0.8;" x="114.414545" xlink:href="#mf7c667b445" y="307.584"/>
      </g>
     </g>
     <g id="text_4">
      <!-- $40 \times 40$ -->
      <defs>
       <path d="M 37.796875 64.3125 
L 12.890625 25.390625 
L 37.796875 25.390625 
z
M 35.203125 72.90625 
L 47.609375 72.90625 
L 47.609375 25.390625 
L 58.015625 25.390625 
L 58.015625 17.1875 
L 47.609375 17.1875 
L 47.609375 0 
L 37.796875 0 
L 37.796875 17.1875 
L 4.890625 17.1875 
L 4.890625 26.703125 
z
" id="DejaVuSans-34"/>
      </defs>
      <g transform="translate(115.885107 319.956907)rotate(-315)scale(0.1 -0.1)">
       <use transform="translate(0 0.78125)" xlink:href="#DejaVuSans-34"/>
       <use transform="translate(63.623047 0.78125)" xlink:href="#DejaVuSans-30"/>
       <use transform="translate(146.728516 0.78125)" xlink:href="#DejaVuSans-d7"/>
       <use transform="translate(250 0.78125)" xlink:href="#DejaVuSans-34"/>
       <use transform="translate(313.623047 0.78125)" xlink:href="#DejaVuSans-30"/>
      </g>
     </g>
    </g>
    <g id="xtick_5">
     <g id="line2d_9">
      <path clip-path="url(#p7fb0191442)" d="M 130.647273 307.584 
L 130.647273 41.472 
" style="fill:none;stroke:#b0b0b0;stroke-linecap:square;stroke-width:0.8;"/>
     </g>
     <g id="line2d_10">
      <g>
       <use style="stroke:#000000;stroke-width:0.8;" x="130.647273" xlink:href="#mf7c667b445" y="307.584"/>
      </g>
     </g>
     <g id="text_5">
      <!-- $50 \times 50$ -->
      <defs>
       <path d="M 10.796875 72.90625 
L 49.515625 72.90625 
L 49.515625 64.59375 
L 19.828125 64.59375 
L 19.828125 46.734375 
Q 21.96875 47.46875 24.109375 47.828125 
Q 26.265625 48.1875 28.421875 48.1875 
Q 40.625 48.1875 47.75 41.5 
Q 54.890625 34.8125 54.890625 23.390625 
Q 54.890625 11.625 47.5625 5.09375 
Q 40.234375 -1.421875 26.90625 -1.421875 
Q 22.3125 -1.421875 17.546875 -0.640625 
Q 12.796875 0.140625 7.71875 1.703125 
L 7.71875 11.625 
Q 12.109375 9.234375 16.796875 8.0625 
Q 21.484375 6.890625 26.703125 6.890625 
Q 35.15625 6.890625 40.078125 11.328125 
Q 45.015625 15.765625 45.015625 23.390625 
Q 45.015625 31 40.078125 35.4375 
Q 35.15625 39.890625 26.703125 39.890625 
Q 22.75 39.890625 18.8125 39.015625 
Q 14.890625 38.140625 10.796875 36.28125 
z
" id="DejaVuSans-35"/>
      </defs>
      <g transform="translate(132.117834 319.956907)rotate(-315)scale(0.1 -0.1)">
       <use transform="translate(0 0.78125)" xlink:href="#DejaVuSans-35"/>
       <use transform="translate(63.623047 0.78125)" xlink:href="#DejaVuSans-30"/>
       <use transform="translate(146.728516 0.78125)" xlink:href="#DejaVuSans-d7"/>
       <use transform="translate(250 0.78125)" xlink:href="#DejaVuSans-35"/>
       <use transform="translate(313.623047 0.78125)" xlink:href="#DejaVuSans-30"/>
      </g>
     </g>
    </g>
    <g id="xtick_6">
     <g id="line2d_11">
      <path clip-path="url(#p7fb0191442)" d="M 146.88 307.584 
L 146.88 41.472 
" style="fill:none;stroke:#b0b0b0;stroke-linecap:square;stroke-width:0.8;"/>
     </g>
     <g id="line2d_12">
      <g>
       <use style="stroke:#000000;stroke-width:0.8;" x="146.88" xlink:href="#mf7c667b445" y="307.584"/>
      </g>
     </g>
     <g id="text_6">
      <!-- $60 \times 60$ -->
      <defs>
       <path d="M 33.015625 40.375 
Q 26.375 40.375 22.484375 35.828125 
Q 18.609375 31.296875 18.609375 23.390625 
Q 18.609375 15.53125 22.484375 10.953125 
Q 26.375 6.390625 33.015625 6.390625 
Q 39.65625 6.390625 43.53125 10.953125 
Q 47.40625 15.53125 47.40625 23.390625 
Q 47.40625 31.296875 43.53125 35.828125 
Q 39.65625 40.375 33.015625 40.375 
z
M 52.59375 71.296875 
L 52.59375 62.3125 
Q 48.875 64.0625 45.09375 64.984375 
Q 41.3125 65.921875 37.59375 65.921875 
Q 27.828125 65.921875 22.671875 59.328125 
Q 17.53125 52.734375 16.796875 39.40625 
Q 19.671875 43.65625 24.015625 45.921875 
Q 28.375 48.1875 33.59375 48.1875 
Q 44.578125 48.1875 50.953125 41.515625 
Q 57.328125 34.859375 57.328125 23.390625 
Q 57.328125 12.15625 50.6875 5.359375 
Q 44.046875 -1.421875 33.015625 -1.421875 
Q 20.359375 -1.421875 13.671875 8.265625 
Q 6.984375 17.96875 6.984375 36.375 
Q 6.984375 53.65625 15.1875 63.9375 
Q 23.390625 74.21875 37.203125 74.21875 
Q 40.921875 74.21875 44.703125 73.484375 
Q 48.484375 72.75 52.59375 71.296875 
z
" id="DejaVuSans-36"/>
      </defs>
      <g transform="translate(148.350561 319.956907)rotate(-315)scale(0.1 -0.1)">
       <use transform="translate(0 0.78125)" xlink:href="#DejaVuSans-36"/>
       <use transform="translate(63.623047 0.78125)" xlink:href="#DejaVuSans-30"/>
       <use transform="translate(146.728516 0.78125)" xlink:href="#DejaVuSans-d7"/>
       <use transform="translate(250 0.78125)" xlink:href="#DejaVuSans-36"/>
       <use transform="translate(313.623047 0.78125)" xlink:href="#DejaVuSans-30"/>
      </g>
     </g>
    </g>
    <g id="xtick_7">
     <g id="line2d_13">
      <path clip-path="url(#p7fb0191442)" d="M 163.112727 307.584 
L 163.112727 41.472 
" style="fill:none;stroke:#b0b0b0;stroke-linecap:square;stroke-width:0.8;"/>
     </g>
     <g id="line2d_14">
      <g>
       <use style="stroke:#000000;stroke-width:0.8;" x="163.112727" xlink:href="#mf7c667b445" y="307.584"/>
      </g>
     </g>
     <g id="text_7">
      <!-- $70 \times 70$ -->
      <defs>
       <path d="M 8.203125 72.90625 
L 55.078125 72.90625 
L 55.078125 68.703125 
L 28.609375 0 
L 18.3125 0 
L 43.21875 64.59375 
L 8.203125 64.59375 
z
" id="DejaVuSans-37"/>
      </defs>
      <g transform="translate(164.583288 319.956907)rotate(-315)scale(0.1 -0.1)">
       <use transform="translate(0 0.78125)" xlink:href="#DejaVuSans-37"/>
       <use transform="translate(63.623047 0.78125)" xlink:href="#DejaVuSans-30"/>
       <use transform="translate(146.728516 0.78125)" xlink:href="#DejaVuSans-d7"/>
       <use transform="translate(250 0.78125)" xlink:href="#DejaVuSans-37"/>
       <use transform="translate(313.623047 0.78125)" xlink:href="#DejaVuSans-30"/>
      </g>
     </g>
    </g>
    <g id="xtick_8">
     <g id="line2d_15">
      <path clip-path="url(#p7fb0191442)" d="M 179.345455 307.584 
L 179.345455 41.472 
" style="fill:none;stroke:#b0b0b0;stroke-linecap:square;stroke-width:0.8;"/>
     </g>
     <g id="line2d_16">
      <g>
       <use style="stroke:#000000;stroke-width:0.8;" x="179.345455" xlink:href="#mf7c667b445" y="307.584"/>
      </g>
     </g>
     <g id="text_8">
      <!-- $80 \times 80$ -->
      <defs>
       <path d="M 31.78125 34.625 
Q 24.75 34.625 20.71875 30.859375 
Q 16.703125 27.09375 16.703125 20.515625 
Q 16.703125 13.921875 20.71875 10.15625 
Q 24.75 6.390625 31.78125 6.390625 
Q 38.8125 6.390625 42.859375 10.171875 
Q 46.921875 13.96875 46.921875 20.515625 
Q 46.921875 27.09375 42.890625 30.859375 
Q 38.875 34.625 31.78125 34.625 
z
M 21.921875 38.8125 
Q 15.578125 40.375 12.03125 44.71875 
Q 8.5 49.078125 8.5 55.328125 
Q 8.5 64.0625 14.71875 69.140625 
Q 20.953125 74.21875 31.78125 74.21875 
Q 42.671875 74.21875 48.875 69.140625 
Q 55.078125 64.0625 55.078125 55.328125 
Q 55.078125 49.078125 51.53125 44.71875 
Q 48 40.375 41.703125 38.8125 
Q 48.828125 37.15625 52.796875 32.3125 
Q 56.78125 27.484375 56.78125 20.515625 
Q 56.78125 9.90625 50.3125 4.234375 
Q 43.84375 -1.421875 31.78125 -1.421875 
Q 19.734375 -1.421875 13.25 4.234375 
Q 6.78125 9.90625 6.78125 20.515625 
Q 6.78125 27.484375 10.78125 32.3125 
Q 14.796875 37.15625 21.921875 38.8125 
z
M 18.3125 54.390625 
Q 18.3125 48.734375 21.84375 45.5625 
Q 25.390625 42.390625 31.78125 42.390625 
Q 38.140625 42.390625 41.71875 45.5625 
Q 45.3125 48.734375 45.3125 54.390625 
Q 45.3125 60.0625 41.71875 63.234375 
Q 38.140625 66.40625 31.78125 66.40625 
Q 25.390625 66.40625 21.84375 63.234375 
Q 18.3125 60.0625 18.3125 54.390625 
z
" id="DejaVuSans-38"/>
      </defs>
      <g transform="translate(180.816016 319.956907)rotate(-315)scale(0.1 -0.1)">
       <use transform="translate(0 0.78125)" xlink:href="#DejaVuSans-38"/>
       <use transform="translate(63.623047 0.78125)" xlink:href="#DejaVuSans-30"/>
       <use transform="translate(146.728516 0.78125)" xlink:href="#DejaVuSans-d7"/>
       <use transform="translate(250 0.78125)" xlink:href="#DejaVuSans-38"/>
       <use transform="translate(313.623047 0.78125)" xlink:href="#DejaVuSans-30"/>
      </g>
     </g>
    </g>
    <g id="xtick_9">
     <g id="line2d_17">
      <path clip-path="url(#p7fb0191442)" d="M 195.578182 307.584 
L 195.578182 41.472 
" style="fill:none;stroke:#b0b0b0;stroke-linecap:square;stroke-width:0.8;"/>
     </g>
     <g id="line2d_18">
      <g>
       <use style="stroke:#000000;stroke-width:0.8;" x="195.578182" xlink:href="#mf7c667b445" y="307.584"/>
      </g>
     </g>
     <g id="text_9">
      <!-- $90 \times 90$ -->
      <defs>
       <path d="M 10.984375 1.515625 
L 10.984375 10.5 
Q 14.703125 8.734375 18.5 7.8125 
Q 22.3125 6.890625 25.984375 6.890625 
Q 35.75 6.890625 40.890625 13.453125 
Q 46.046875 20.015625 46.78125 33.40625 
Q 43.953125 29.203125 39.59375 26.953125 
Q 35.25 24.703125 29.984375 24.703125 
Q 19.046875 24.703125 12.671875 31.3125 
Q 6.296875 37.9375 6.296875 49.421875 
Q 6.296875 60.640625 12.9375 67.421875 
Q 19.578125 74.21875 30.609375 74.21875 
Q 43.265625 74.21875 49.921875 64.515625 
Q 56.59375 54.828125 56.59375 36.375 
Q 56.59375 19.140625 48.40625 8.859375 
Q 40.234375 -1.421875 26.421875 -1.421875 
Q 22.703125 -1.421875 18.890625 -0.6875 
Q 15.09375 0.046875 10.984375 1.515625 
z
M 30.609375 32.421875 
Q 37.25 32.421875 41.125 36.953125 
Q 45.015625 41.5 45.015625 49.421875 
Q 45.015625 57.28125 41.125 61.84375 
Q 37.25 66.40625 30.609375 66.40625 
Q 23.96875 66.40625 20.09375 61.84375 
Q 16.21875 57.28125 16.21875 49.421875 
Q 16.21875 41.5 20.09375 36.953125 
Q 23.96875 32.421875 30.609375 32.421875 
z
" id="DejaVuSans-39"/>
      </defs>
      <g transform="translate(197.048743 319.956907)rotate(-315)scale(0.1 -0.1)">
       <use transform="translate(0 0.78125)" xlink:href="#DejaVuSans-39"/>
       <use transform="translate(63.623047 0.78125)" xlink:href="#DejaVuSans-30"/>
       <use transform="translate(146.728516 0.78125)" xlink:href="#DejaVuSans-d7"/>
       <use transform="translate(250 0.78125)" xlink:href="#DejaVuSans-39"/>
       <use transform="translate(313.623047 0.78125)" xlink:href="#DejaVuSans-30"/>
      </g>
     </g>
    </g>
    <g id="xtick_10">
     <g id="line2d_19">
      <path clip-path="url(#p7fb0191442)" d="M 211.810909 307.584 
L 211.810909 41.472 
" style="fill:none;stroke:#b0b0b0;stroke-linecap:square;stroke-width:0.8;"/>
     </g>
     <g id="line2d_20">
      <g>
       <use style="stroke:#000000;stroke-width:0.8;" x="211.810909" xlink:href="#mf7c667b445" y="307.584"/>
      </g>
     </g>
     <g id="text_10">
      <!-- $100 \times 100$ -->
      <g transform="translate(213.28147 319.956907)rotate(-315)scale(0.1 -0.1)">
       <use transform="translate(0 0.78125)" xlink:href="#DejaVuSans-31"/>
       <use transform="translate(63.623047 0.78125)" xlink:href="#DejaVuSans-30"/>
       <use transform="translate(127.246094 0.78125)" xlink:href="#DejaVuSans-30"/>
       <use transform="translate(210.351562 0.78125)" xlink:href="#DejaVuSans-d7"/>
       <use transform="translate(313.623047 0.78125)" xlink:href="#DejaVuSans-31"/>
       <use transform="translate(377.246094 0.78125)" xlink:href="#DejaVuSans-30"/>
       <use transform="translate(440.869141 0.78125)" xlink:href="#DejaVuSans-30"/>
      </g>
     </g>
    </g>
    <g id="text_11">
     <!-- $\frac{A_{image}}{pixels^2}$ -->
     <defs>
      <path d="M 36.8125 72.90625 
L 48 72.90625 
L 61.53125 0 
L 51.21875 0 
L 48.1875 18.703125 
L 15.375 18.703125 
L 5.078125 0 
L -5.328125 0 
z
M 40.375 63.1875 
L 19.921875 26.90625 
L 46.6875 26.90625 
z
" id="DejaVuSans-Oblique-41"/>
      <path d="M 18.3125 75.984375 
L 27.296875 75.984375 
L 25.09375 64.59375 
L 16.109375 64.59375 
z
M 14.203125 54.6875 
L 23.1875 54.6875 
L 12.5 0 
L 3.515625 0 
z
" id="DejaVuSans-Oblique-69"/>
      <path d="M 89.796875 33.015625 
L 83.40625 0 
L 74.421875 0 
L 80.71875 32.71875 
Q 81.109375 34.8125 81.296875 36.328125 
Q 81.5 37.84375 81.5 38.921875 
Q 81.5 43.3125 79.046875 45.75 
Q 76.609375 48.1875 72.21875 48.1875 
Q 65.671875 48.1875 60.546875 43.28125 
Q 55.421875 38.375 53.90625 30.515625 
L 47.90625 0 
L 38.921875 0 
L 45.3125 32.71875 
Q 45.703125 34.515625 45.890625 36.046875 
Q 46.09375 37.59375 46.09375 38.8125 
Q 46.09375 43.265625 43.65625 45.71875 
Q 41.21875 48.1875 36.921875 48.1875 
Q 30.28125 48.1875 25.140625 43.28125 
Q 20.015625 38.375 18.5 30.515625 
L 12.5 0 
L 3.515625 0 
L 14.203125 54.6875 
L 23.1875 54.6875 
L 21.484375 46.1875 
Q 25.140625 50.984375 30.046875 53.484375 
Q 34.96875 56 40.578125 56 
Q 46.53125 56 50.359375 52.875 
Q 54.203125 49.75 54.984375 44.1875 
Q 59.078125 49.953125 64.46875 52.96875 
Q 69.875 56 75.875 56 
Q 82.90625 56 86.734375 51.953125 
Q 90.578125 47.90625 90.578125 40.484375 
Q 90.578125 38.875 90.375 36.9375 
Q 90.1875 35.015625 89.796875 33.015625 
z
" id="DejaVuSans-Oblique-6d"/>
      <path d="M 53.71875 31.203125 
L 47.609375 0 
L 38.625 0 
L 40.28125 8.296875 
Q 36.328125 3.421875 31.265625 1 
Q 26.21875 -1.421875 20.015625 -1.421875 
Q 13.03125 -1.421875 8.5625 2.84375 
Q 4.109375 7.125 4.109375 13.8125 
Q 4.109375 23.390625 11.75 28.953125 
Q 19.390625 34.515625 32.8125 34.515625 
L 45.3125 34.515625 
L 45.796875 36.921875 
Q 45.90625 37.3125 45.953125 37.765625 
Q 46 38.234375 46 39.203125 
Q 46 43.5625 42.453125 45.96875 
Q 38.921875 48.390625 32.515625 48.390625 
Q 28.125 48.390625 23.5 47.265625 
Q 18.890625 46.140625 14.015625 43.890625 
L 15.578125 52.203125 
Q 20.65625 54.109375 25.515625 55.046875 
Q 30.375 56 34.90625 56 
Q 44.578125 56 49.625 51.796875 
Q 54.6875 47.609375 54.6875 39.59375 
Q 54.6875 37.984375 54.4375 35.8125 
Q 54.203125 33.640625 53.71875 31.203125 
z
M 44 27.484375 
L 35.015625 27.484375 
Q 23.96875 27.484375 18.671875 24.53125 
Q 13.375 21.578125 13.375 15.375 
Q 13.375 11.078125 16.078125 8.640625 
Q 18.796875 6.203125 23.578125 6.203125 
Q 30.90625 6.203125 36.375 11.453125 
Q 41.84375 16.703125 43.609375 25.484375 
z
" id="DejaVuSans-Oblique-61"/>
      <path d="M 59.625 54.6875 
L 50.296875 6.78125 
Q 47.609375 -7.125 40.015625 -13.953125 
Q 32.421875 -20.796875 19.578125 -20.796875 
Q 14.84375 -20.796875 10.78125 -20.09375 
Q 6.734375 -19.390625 3.21875 -17.921875 
L 4.890625 -9.1875 
Q 8.203125 -11.328125 11.90625 -12.34375 
Q 15.625 -13.375 19.828125 -13.375 
Q 28.375 -13.375 33.859375 -8.703125 
Q 39.359375 -4.046875 41.109375 4.6875 
L 41.890625 8.796875 
Q 38.140625 4.5 33.15625 2.25 
Q 28.171875 0 22.40625 0 
Q 14.109375 0 9.34375 5.484375 
Q 4.59375 10.984375 4.59375 20.609375 
Q 4.59375 28.171875 7.46875 35.421875 
Q 10.359375 42.671875 15.578125 48.296875 
Q 19.046875 52 23.65625 54 
Q 28.265625 56 33.296875 56 
Q 38.8125 56 42.90625 53.4375 
Q 47.015625 50.875 49.03125 46.1875 
L 50.59375 54.6875 
z
M 46.09375 34.625 
Q 46.09375 41.265625 42.96875 44.875 
Q 39.84375 48.484375 34.078125 48.484375 
Q 30.515625 48.484375 27.296875 47.0625 
Q 24.078125 45.65625 21.78125 43.109375 
Q 18.0625 38.921875 15.984375 33.234375 
Q 13.921875 27.546875 13.921875 21.484375 
Q 13.921875 14.75 17.0625 11.125 
Q 20.21875 7.515625 26.125 7.515625 
Q 34.671875 7.515625 40.375 15.25 
Q 46.09375 23 46.09375 34.625 
z
" id="DejaVuSans-Oblique-67"/>
      <path d="M 48.09375 32.234375 
Q 48.25 33.015625 48.3125 33.84375 
Q 48.390625 34.671875 48.390625 35.5 
Q 48.390625 41.453125 44.890625 44.921875 
Q 41.40625 48.390625 35.40625 48.390625 
Q 28.71875 48.390625 23.578125 44.15625 
Q 18.453125 39.9375 15.828125 32.171875 
z
M 55.90625 25.203125 
L 14.109375 25.203125 
Q 13.8125 23.34375 13.71875 22.265625 
Q 13.625 21.1875 13.625 20.40625 
Q 13.625 13.625 17.796875 9.90625 
Q 21.96875 6.203125 29.59375 6.203125 
Q 35.453125 6.203125 40.671875 7.515625 
Q 45.90625 8.84375 50.390625 11.375 
L 48.6875 2.484375 
Q 43.84375 0.53125 38.6875 -0.4375 
Q 33.546875 -1.421875 28.21875 -1.421875 
Q 16.84375 -1.421875 10.71875 4.015625 
Q 4.59375 9.46875 4.59375 19.484375 
Q 4.59375 28.03125 7.640625 35.375 
Q 10.6875 42.71875 16.609375 48.484375 
Q 20.40625 52.09375 25.65625 54.046875 
Q 30.90625 56 36.8125 56 
Q 46.09375 56 51.578125 50.4375 
Q 57.078125 44.875 57.078125 35.5 
Q 57.078125 33.25 56.78125 30.6875 
Q 56.5 28.125 55.90625 25.203125 
z
" id="DejaVuSans-Oblique-65"/>
      <path d="M 49.609375 33.6875 
Q 49.609375 40.875 46.484375 44.671875 
Q 43.359375 48.484375 37.5 48.484375 
Q 33.5 48.484375 29.859375 46.4375 
Q 26.21875 44.390625 23.390625 40.484375 
Q 20.609375 36.625 18.9375 31.15625 
Q 17.28125 25.6875 17.28125 20.3125 
Q 17.28125 13.484375 20.40625 9.796875 
Q 23.53125 6.109375 29.296875 6.109375 
Q 33.546875 6.109375 37.1875 8.109375 
Q 40.828125 10.109375 43.40625 13.921875 
Q 46.1875 17.921875 47.890625 23.34375 
Q 49.609375 28.765625 49.609375 33.6875 
z
M 21.78125 46.390625 
Q 25.390625 51.125 30.296875 53.5625 
Q 35.203125 56 41.21875 56 
Q 49.609375 56 54.25 50.5 
Q 58.890625 45.015625 58.890625 35.109375 
Q 58.890625 27 56 19.65625 
Q 53.125 12.3125 47.703125 6.5 
Q 44.09375 2.640625 39.546875 0.609375 
Q 35.015625 -1.421875 29.984375 -1.421875 
Q 24.171875 -1.421875 20.21875 1 
Q 16.265625 3.421875 14.3125 8.203125 
L 8.6875 -20.796875 
L -0.296875 -20.796875 
L 14.40625 54.6875 
L 23.390625 54.6875 
z
" id="DejaVuSans-Oblique-70"/>
      <path d="M 60.015625 54.6875 
L 34.90625 27.875 
L 50.296875 0 
L 39.984375 0 
L 28.421875 21.6875 
L 8.296875 0 
L -2.59375 0 
L 24.3125 28.8125 
L 10.015625 54.6875 
L 20.3125 54.6875 
L 30.8125 34.90625 
L 49.125 54.6875 
z
" id="DejaVuSans-Oblique-78"/>
      <path d="M 18.3125 75.984375 
L 27.296875 75.984375 
L 12.5 0 
L 3.515625 0 
z
" id="DejaVuSans-Oblique-6c"/>
      <path d="M 50 53.078125 
L 48.296875 44.578125 
Q 44.734375 46.53125 40.765625 47.5 
Q 36.8125 48.484375 32.625 48.484375 
Q 25.53125 48.484375 21.453125 46.0625 
Q 17.390625 43.65625 17.390625 39.5 
Q 17.390625 34.671875 26.859375 32.078125 
Q 27.59375 31.890625 27.9375 31.78125 
L 30.8125 30.90625 
Q 39.796875 28.421875 42.796875 25.6875 
Q 45.796875 22.953125 45.796875 18.21875 
Q 45.796875 9.515625 38.890625 4.046875 
Q 31.984375 -1.421875 20.796875 -1.421875 
Q 16.453125 -1.421875 11.671875 -0.578125 
Q 6.890625 0.25 1.125 2 
L 2.875 11.28125 
Q 7.8125 8.734375 12.59375 7.421875 
Q 17.390625 6.109375 21.78125 6.109375 
Q 28.375 6.109375 32.5 8.9375 
Q 36.625 11.765625 36.625 16.109375 
Q 36.625 20.796875 25.78125 23.6875 
L 24.859375 23.921875 
L 21.78125 24.703125 
Q 14.9375 26.515625 11.765625 29.46875 
Q 8.59375 32.421875 8.59375 37.015625 
Q 8.59375 45.75 15.15625 50.875 
Q 21.734375 56 33.015625 56 
Q 37.453125 56 41.671875 55.265625 
Q 45.90625 54.546875 50 53.078125 
z
" id="DejaVuSans-Oblique-73"/>
     </defs>
     <g transform="translate(119.713636 378.68636)scale(0.15 -0.15)">
      <use transform="translate(19 65.965625)scale(0.7)" xlink:href="#DejaVuSans-Oblique-41"/>
      <use transform="translate(66.885742 54.48125)scale(0.49)" xlink:href="#DejaVuSans-Oblique-69"/>
      <use transform="translate(80.499512 54.48125)scale(0.49)" xlink:href="#DejaVuSans-Oblique-6d"/>
      <use transform="translate(128.231445 54.48125)scale(0.49)" xlink:href="#DejaVuSans-Oblique-61"/>
      <use transform="translate(158.258301 54.48125)scale(0.49)" xlink:href="#DejaVuSans-Oblique-67"/>
      <use transform="translate(189.361816 54.48125)scale(0.49)" xlink:href="#DejaVuSans-Oblique-65"/>
      <use transform="translate(0 -50.123281)scale(0.7)" xlink:href="#DejaVuSans-Oblique-70"/>
      <use transform="translate(44.433594 -50.123281)scale(0.7)" xlink:href="#DejaVuSans-Oblique-69"/>
      <use transform="translate(63.881836 -50.123281)scale(0.7)" xlink:href="#DejaVuSans-Oblique-78"/>
      <use transform="translate(105.307617 -50.123281)scale(0.7)" xlink:href="#DejaVuSans-Oblique-65"/>
      <use transform="translate(148.374023 -50.123281)scale(0.7)" xlink:href="#DejaVuSans-Oblique-6c"/>
      <use transform="translate(167.822266 -50.123281)scale(0.7)" xlink:href="#DejaVuSans-Oblique-73"/>
      <use transform="translate(207.546919 -23.326406)scale(0.49)" xlink:href="#DejaVuSans-32"/>
      <path d="M 0 19.290781 
L 0 25.540781 
L 240.636275 25.540781 
L 240.636275 19.290781 
L 0 19.290781 
z
"/>
     </g>
    </g>
   </g>
   <g id="matplotlib.axis_2">
    <g id="ytick_1">
     <g id="line2d_21">
      <path clip-path="url(#p7fb0191442)" d="M 57.6 295.651646 
L 219.927273 295.651646 
" style="fill:none;stroke:#b0b0b0;stroke-linecap:square;stroke-width:0.8;"/>
     </g>
     <g id="line2d_22">
      <defs>
       <path d="M 0 0 
L -3.5 0 
" id="m8d2790d62e" style="stroke:#000000;stroke-width:0.8;"/>
      </defs>
      <g>
       <use style="stroke:#000000;stroke-width:0.8;" x="57.6" xlink:href="#m8d2790d62e" y="295.651646"/>
      </g>
     </g>
     <g id="text_12">
      <!-- 0 -->
      <g transform="translate(44.2375 299.450865)scale(0.1 -0.1)">
       <use xlink:href="#DejaVuSans-30"/>
      </g>
     </g>
    </g>
    <g id="ytick_2">
     <g id="line2d_23">
      <path clip-path="url(#p7fb0191442)" d="M 57.6 251.294078 
L 219.927273 251.294078 
" style="fill:none;stroke:#b0b0b0;stroke-linecap:square;stroke-width:0.8;"/>
     </g>
     <g id="line2d_24">
      <g>
       <use style="stroke:#000000;stroke-width:0.8;" x="57.6" xlink:href="#m8d2790d62e" y="251.294078"/>
      </g>
     </g>
     <g id="text_13">
      <!-- 20 -->
      <g transform="translate(37.875 255.093297)scale(0.1 -0.1)">
       <use xlink:href="#DejaVuSans-32"/>
       <use x="63.623047" xlink:href="#DejaVuSans-30"/>
      </g>
     </g>
    </g>
    <g id="ytick_3">
     <g id="line2d_25">
      <path clip-path="url(#p7fb0191442)" d="M 57.6 206.93651 
L 219.927273 206.93651 
" style="fill:none;stroke:#b0b0b0;stroke-linecap:square;stroke-width:0.8;"/>
     </g>
     <g id="line2d_26">
      <g>
       <use style="stroke:#000000;stroke-width:0.8;" x="57.6" xlink:href="#m8d2790d62e" y="206.93651"/>
      </g>
     </g>
     <g id="text_14">
      <!-- 40 -->
      <g transform="translate(37.875 210.735729)scale(0.1 -0.1)">
       <use xlink:href="#DejaVuSans-34"/>
       <use x="63.623047" xlink:href="#DejaVuSans-30"/>
      </g>
     </g>
    </g>
    <g id="ytick_4">
     <g id="line2d_27">
      <path clip-path="url(#p7fb0191442)" d="M 57.6 162.578942 
L 219.927273 162.578942 
" style="fill:none;stroke:#b0b0b0;stroke-linecap:square;stroke-width:0.8;"/>
     </g>
     <g id="line2d_28">
      <g>
       <use style="stroke:#000000;stroke-width:0.8;" x="57.6" xlink:href="#m8d2790d62e" y="162.578942"/>
      </g>
     </g>
     <g id="text_15">
      <!-- 60 -->
      <g transform="translate(37.875 166.37816)scale(0.1 -0.1)">
       <use xlink:href="#DejaVuSans-36"/>
       <use x="63.623047" xlink:href="#DejaVuSans-30"/>
      </g>
     </g>
    </g>
    <g id="ytick_5">
     <g id="line2d_29">
      <path clip-path="url(#p7fb0191442)" d="M 57.6 118.221373 
L 219.927273 118.221373 
" style="fill:none;stroke:#b0b0b0;stroke-linecap:square;stroke-width:0.8;"/>
     </g>
     <g id="line2d_30">
      <g>
       <use style="stroke:#000000;stroke-width:0.8;" x="57.6" xlink:href="#m8d2790d62e" y="118.221373"/>
      </g>
     </g>
     <g id="text_16">
      <!-- 80 -->
      <g transform="translate(37.875 122.020592)scale(0.1 -0.1)">
       <use xlink:href="#DejaVuSans-38"/>
       <use x="63.623047" xlink:href="#DejaVuSans-30"/>
      </g>
     </g>
    </g>
    <g id="ytick_6">
     <g id="line2d_31">
      <path clip-path="url(#p7fb0191442)" d="M 57.6 73.863805 
L 219.927273 73.863805 
" style="fill:none;stroke:#b0b0b0;stroke-linecap:square;stroke-width:0.8;"/>
     </g>
     <g id="line2d_32">
      <g>
       <use style="stroke:#000000;stroke-width:0.8;" x="57.6" xlink:href="#m8d2790d62e" y="73.863805"/>
      </g>
     </g>
     <g id="text_17">
      <!-- 100 -->
      <g transform="translate(31.5125 77.663024)scale(0.1 -0.1)">
       <use xlink:href="#DejaVuSans-31"/>
       <use x="63.623047" xlink:href="#DejaVuSans-30"/>
       <use x="127.246094" xlink:href="#DejaVuSans-30"/>
      </g>
     </g>
    </g>
    <g id="text_18">
     <!-- $\frac{t_{exec}}{\mu s}$ -->
     <defs>
      <path d="M 42.28125 54.6875 
L 40.921875 47.703125 
L 23 47.703125 
L 17.1875 18.015625 
Q 16.890625 16.359375 16.75 15.234375 
Q 16.609375 14.109375 16.609375 13.484375 
Q 16.609375 10.359375 18.484375 8.9375 
Q 20.359375 7.515625 24.515625 7.515625 
L 33.59375 7.515625 
L 32.078125 0 
L 23.484375 0 
Q 15.484375 0 11.546875 3.125 
Q 7.625 6.25 7.625 12.59375 
Q 7.625 13.71875 7.765625 15.0625 
Q 7.90625 16.40625 8.203125 18.015625 
L 14.015625 47.703125 
L 6.390625 47.703125 
L 7.8125 54.6875 
L 15.28125 54.6875 
L 18.3125 70.21875 
L 27.296875 70.21875 
L 24.3125 54.6875 
z
" id="DejaVuSans-Oblique-74"/>
      <path d="M 53.609375 52.59375 
L 51.8125 43.703125 
Q 48.578125 46.046875 44.9375 47.21875 
Q 41.3125 48.390625 37.40625 48.390625 
Q 33.109375 48.390625 29.21875 46.875 
Q 25.34375 45.359375 22.703125 42.578125 
Q 18.5 38.328125 16.203125 32.609375 
Q 13.921875 26.90625 13.921875 20.796875 
Q 13.921875 13.421875 17.609375 9.8125 
Q 21.296875 6.203125 28.8125 6.203125 
Q 32.515625 6.203125 36.6875 7.328125 
Q 40.875 8.453125 45.40625 10.6875 
L 43.703125 1.8125 
Q 39.796875 0.203125 35.671875 -0.609375 
Q 31.546875 -1.421875 27.203125 -1.421875 
Q 16.3125 -1.421875 10.453125 4.015625 
Q 4.59375 9.46875 4.59375 19.578125 
Q 4.59375 28.078125 7.640625 35.234375 
Q 10.6875 42.390625 16.703125 48.09375 
Q 20.796875 52 26.3125 54 
Q 31.84375 56 38.375 56 
Q 42.1875 56 45.9375 55.140625 
Q 49.703125 54.296875 53.609375 52.59375 
z
" id="DejaVuSans-Oblique-63"/>
      <path d="M -1.3125 -20.796875 
L 13.375 54.6875 
L 22.40625 54.6875 
L 15.765625 20.65625 
Q 15.578125 19.625 15.421875 18.359375 
Q 15.28125 17.09375 15.28125 15.828125 
Q 15.28125 11.28125 18.140625 8.828125 
Q 21 6.390625 26.3125 6.390625 
Q 33.546875 6.390625 37.984375 10.484375 
Q 42.4375 14.59375 44 22.796875 
L 50.203125 54.6875 
L 59.1875 54.6875 
L 51.03125 12.640625 
Q 50.828125 11.71875 50.75 11.03125 
Q 50.6875 10.359375 50.6875 9.8125 
Q 50.6875 8.296875 51.296875 7.59375 
Q 51.90625 6.890625 53.21875 6.890625 
Q 53.71875 6.890625 54.5625 7.125 
Q 55.421875 7.375 56.984375 8.015625 
L 55.609375 0.78125 
Q 53.46875 -0.296875 51.515625 -0.859375 
Q 49.5625 -1.421875 47.703125 -1.421875 
Q 44.484375 -1.421875 42.65625 0.625 
Q 40.828125 2.6875 40.828125 6.296875 
Q 38.09375 2.390625 34.296875 0.484375 
Q 30.515625 -1.421875 25.390625 -1.421875 
Q 20.84375 -1.421875 17.453125 0.671875 
Q 14.0625 2.78125 12.984375 6.203125 
L 7.71875 -20.796875 
z
" id="DejaVuSans-Oblique-3bc"/>
     </defs>
     <g transform="translate(45.675 29.84976)scale(0.15 -0.15)">
      <use transform="translate(0 56.846875)scale(0.7)" xlink:href="#DejaVuSans-Oblique-74"/>
      <use transform="translate(27.446289 45.3625)scale(0.49)" xlink:href="#DejaVuSans-Oblique-65"/>
      <use transform="translate(57.592773 45.3625)scale(0.49)" xlink:href="#DejaVuSans-Oblique-78"/>
      <use transform="translate(86.59082 45.3625)scale(0.49)" xlink:href="#DejaVuSans-Oblique-65"/>
      <use transform="translate(116.737305 45.3625)scale(0.49)" xlink:href="#DejaVuSans-Oblique-63"/>
      <use transform="translate(32 -25.784219)scale(0.7)" xlink:href="#DejaVuSans-Oblique-3bc"/>
      <use transform="translate(76.536133 -25.784219)scale(0.7)" xlink:href="#DejaVuSans-Oblique-73"/>
      <path d="M 0 19.665781 
L 0 25.915781 
L 145.591797 25.915781 
L 145.591797 19.665781 
L 0 19.665781 
z
"/>
     </g>
    </g>
   </g>
   <g id="line2d_33">
    <path clip-path="url(#p7fb0191442)" d="M 65.716364 295.487543 
L 65.716364 295.488 
" style="fill:none;stroke:#778899;stroke-linecap:square;"/>
   </g>
   <g id="line2d_34">
    <path clip-path="url(#p7fb0191442)" d="M 65.716364 295.487204 
L 65.716364 295.486718 
" style="fill:none;stroke:#778899;stroke-linecap:square;"/>
   </g>
   <g id="line2d_35">
    <path clip-path="url(#p7fb0191442)" d="M 63.687273 295.488 
L 67.745455 295.488 
" style="fill:none;stroke:#778899;stroke-linecap:square;"/>
   </g>
   <g id="line2d_36">
    <path clip-path="url(#p7fb0191442)" d="M 63.687273 295.486718 
L 67.745455 295.486718 
" style="fill:none;stroke:#778899;stroke-linecap:square;"/>
   </g>
   <g id="line2d_37">
    <defs>
     <path d="M 0 3 
C 0.795609 3 1.55874 2.683901 2.12132 2.12132 
C 2.683901 1.55874 3 0.795609 3 0 
C 3 -0.795609 2.683901 -1.55874 2.12132 -2.12132 
C 1.55874 -2.683901 0.795609 -3 0 -3 
C -0.795609 -3 -1.55874 -2.683901 -2.12132 -2.12132 
C -2.683901 -1.55874 -3 -0.795609 -3 0 
C -3 0.795609 -2.683901 1.55874 -2.12132 2.12132 
C -1.55874 2.683901 -0.795609 3 0 3 
z
" id="m36c8b6a54f" style="stroke:#778899;"/>
    </defs>
    <g clip-path="url(#p7fb0191442)">
     <use style="fill:#b0c4de;stroke:#778899;" x="65.716364" xlink:href="#m36c8b6a54f" y="295.43659"/>
     <use style="fill:#b0c4de;stroke:#778899;" x="65.716364" xlink:href="#m36c8b6a54f" y="295.482533"/>
     <use style="fill:#b0c4de;stroke:#778899;" x="65.716364" xlink:href="#m36c8b6a54f" y="295.48464"/>
     <use style="fill:#b0c4de;stroke:#778899;" x="65.716364" xlink:href="#m36c8b6a54f" y="295.486601"/>
     <use style="fill:#b0c4de;stroke:#778899;" x="65.716364" xlink:href="#m36c8b6a54f" y="295.486678"/>
     <use style="fill:#b0c4de;stroke:#778899;" x="65.716364" xlink:href="#m36c8b6a54f" y="295.482839"/>
     <use style="fill:#b0c4de;stroke:#778899;" x="65.716364" xlink:href="#m36c8b6a54f" y="295.464067"/>
    </g>
   </g>
   <g id="line2d_38">
    <path clip-path="url(#p7fb0191442)" d="M 81.949091 294.307623 
L 81.949091 294.316466 
" style="fill:none;stroke:#778899;stroke-linecap:square;"/>
   </g>
   <g id="line2d_39">
    <path clip-path="url(#p7fb0191442)" d="M 81.949091 294.273871 
L 81.949091 294.241748 
" style="fill:none;stroke:#778899;stroke-linecap:square;"/>
   </g>
   <g id="line2d_40">
    <path clip-path="url(#p7fb0191442)" d="M 79.92 294.316466 
L 83.978182 294.316466 
" style="fill:none;stroke:#778899;stroke-linecap:square;"/>
   </g>
   <g id="line2d_41">
    <path clip-path="url(#p7fb0191442)" d="M 79.92 294.241748 
L 83.978182 294.241748 
" style="fill:none;stroke:#778899;stroke-linecap:square;"/>
   </g>
   <g id="line2d_42">
    <g clip-path="url(#p7fb0191442)">
     <use style="fill:#b0c4de;stroke:#778899;" x="81.949091" xlink:href="#m36c8b6a54f" y="294.056772"/>
     <use style="fill:#b0c4de;stroke:#778899;" x="81.949091" xlink:href="#m36c8b6a54f" y="293.953088"/>
     <use style="fill:#b0c4de;stroke:#778899;" x="81.949091" xlink:href="#m36c8b6a54f" y="294.195942"/>
     <use style="fill:#b0c4de;stroke:#778899;" x="81.949091" xlink:href="#m36c8b6a54f" y="294.128185"/>
     <use style="fill:#b0c4de;stroke:#778899;" x="81.949091" xlink:href="#m36c8b6a54f" y="294.214372"/>
     <use style="fill:#b0c4de;stroke:#778899;" x="81.949091" xlink:href="#m36c8b6a54f" y="294.065386"/>
     <use style="fill:#b0c4de;stroke:#778899;" x="81.949091" xlink:href="#m36c8b6a54f" y="293.950114"/>
     <use style="fill:#b0c4de;stroke:#778899;" x="81.949091" xlink:href="#m36c8b6a54f" y="293.988892"/>
     <use style="fill:#b0c4de;stroke:#778899;" x="81.949091" xlink:href="#m36c8b6a54f" y="294.217109"/>
     <use style="fill:#b0c4de;stroke:#778899;" x="81.949091" xlink:href="#m36c8b6a54f" y="294.172842"/>
     <use style="fill:#b0c4de;stroke:#778899;" x="81.949091" xlink:href="#m36c8b6a54f" y="294.211828"/>
     <use style="fill:#b0c4de;stroke:#778899;" x="81.949091" xlink:href="#m36c8b6a54f" y="294.221103"/>
    </g>
   </g>
   <g id="line2d_43">
    <path clip-path="url(#p7fb0191442)" d="M 98.181818 290.317626 
L 98.181818 290.348011 
" style="fill:none;stroke:#778899;stroke-linecap:square;"/>
   </g>
   <g id="line2d_44">
    <path clip-path="url(#p7fb0191442)" d="M 98.181818 289.989358 
L 98.181818 289.523759 
" style="fill:none;stroke:#778899;stroke-linecap:square;"/>
   </g>
   <g id="line2d_45">
    <path clip-path="url(#p7fb0191442)" d="M 96.152727 290.348011 
L 100.210909 290.348011 
" style="fill:none;stroke:#778899;stroke-linecap:square;"/>
   </g>
   <g id="line2d_46">
    <path clip-path="url(#p7fb0191442)" d="M 96.152727 289.523759 
L 100.210909 289.523759 
" style="fill:none;stroke:#778899;stroke-linecap:square;"/>
   </g>
   <g id="line2d_47">
    <g clip-path="url(#p7fb0191442)">
     <use style="fill:#b0c4de;stroke:#778899;" x="98.181818" xlink:href="#m36c8b6a54f" y="289.295495"/>
     <use style="fill:#b0c4de;stroke:#778899;" x="98.181818" xlink:href="#m36c8b6a54f" y="289.204141"/>
     <use style="fill:#b0c4de;stroke:#778899;" x="98.181818" xlink:href="#m36c8b6a54f" y="289.257858"/>
    </g>
   </g>
   <g id="line2d_48">
    <path clip-path="url(#p7fb0191442)" d="M 114.414545 286.066042 
L 114.414545 286.132845 
" style="fill:none;stroke:#778899;stroke-linecap:square;"/>
   </g>
   <g id="line2d_49">
    <path clip-path="url(#p7fb0191442)" d="M 114.414545 283.690051 
L 114.414545 283.416143 
" style="fill:none;stroke:#778899;stroke-linecap:square;"/>
   </g>
   <g id="line2d_50">
    <path clip-path="url(#p7fb0191442)" d="M 112.385455 286.132845 
L 116.443636 286.132845 
" style="fill:none;stroke:#778899;stroke-linecap:square;"/>
   </g>
   <g id="line2d_51">
    <path clip-path="url(#p7fb0191442)" d="M 112.385455 283.416143 
L 116.443636 283.416143 
" style="fill:none;stroke:#778899;stroke-linecap:square;"/>
   </g>
   <g id="line2d_52"/>
   <g id="line2d_53">
    <path clip-path="url(#p7fb0191442)" d="M 130.647273 278.183924 
L 130.647273 278.305176 
" style="fill:none;stroke:#778899;stroke-linecap:square;"/>
   </g>
   <g id="line2d_54">
    <path clip-path="url(#p7fb0191442)" d="M 130.647273 244.941852 
L 130.647273 243.484928 
" style="fill:none;stroke:#778899;stroke-linecap:square;"/>
   </g>
   <g id="line2d_55">
    <path clip-path="url(#p7fb0191442)" d="M 128.618182 278.305176 
L 132.676364 278.305176 
" style="fill:none;stroke:#778899;stroke-linecap:square;"/>
   </g>
   <g id="line2d_56">
    <path clip-path="url(#p7fb0191442)" d="M 128.618182 243.484928 
L 132.676364 243.484928 
" style="fill:none;stroke:#778899;stroke-linecap:square;"/>
   </g>
   <g id="line2d_57"/>
   <g id="line2d_58">
    <path clip-path="url(#p7fb0191442)" d="M 146.88 264.225418 
L 146.88 270.463423 
" style="fill:none;stroke:#778899;stroke-linecap:square;"/>
   </g>
   <g id="line2d_59">
    <path clip-path="url(#p7fb0191442)" d="M 146.88 259.113208 
L 146.88 258.893417 
" style="fill:none;stroke:#778899;stroke-linecap:square;"/>
   </g>
   <g id="line2d_60">
    <path clip-path="url(#p7fb0191442)" d="M 144.850909 270.463423 
L 148.909091 270.463423 
" style="fill:none;stroke:#778899;stroke-linecap:square;"/>
   </g>
   <g id="line2d_61">
    <path clip-path="url(#p7fb0191442)" d="M 144.850909 258.893417 
L 148.909091 258.893417 
" style="fill:none;stroke:#778899;stroke-linecap:square;"/>
   </g>
   <g id="line2d_62"/>
   <g id="line2d_63">
    <path clip-path="url(#p7fb0191442)" d="M 163.112727 257.551378 
L 163.112727 257.88162 
" style="fill:none;stroke:#778899;stroke-linecap:square;"/>
   </g>
   <g id="line2d_64">
    <path clip-path="url(#p7fb0191442)" d="M 163.112727 243.910317 
L 163.112727 240.740525 
" style="fill:none;stroke:#778899;stroke-linecap:square;"/>
   </g>
   <g id="line2d_65">
    <path clip-path="url(#p7fb0191442)" d="M 161.083636 257.88162 
L 165.141818 257.88162 
" style="fill:none;stroke:#778899;stroke-linecap:square;"/>
   </g>
   <g id="line2d_66">
    <path clip-path="url(#p7fb0191442)" d="M 161.083636 240.740525 
L 165.141818 240.740525 
" style="fill:none;stroke:#778899;stroke-linecap:square;"/>
   </g>
   <g id="line2d_67"/>
   <g id="line2d_68">
    <path clip-path="url(#p7fb0191442)" d="M 179.345455 245.934575 
L 179.345455 246.235763 
" style="fill:none;stroke:#778899;stroke-linecap:square;"/>
   </g>
   <g id="line2d_69">
    <path clip-path="url(#p7fb0191442)" d="M 179.345455 242.283282 
L 179.345455 241.613039 
" style="fill:none;stroke:#778899;stroke-linecap:square;"/>
   </g>
   <g id="line2d_70">
    <path clip-path="url(#p7fb0191442)" d="M 177.316364 246.235763 
L 181.374545 246.235763 
" style="fill:none;stroke:#778899;stroke-linecap:square;"/>
   </g>
   <g id="line2d_71">
    <path clip-path="url(#p7fb0191442)" d="M 177.316364 241.613039 
L 181.374545 241.613039 
" style="fill:none;stroke:#778899;stroke-linecap:square;"/>
   </g>
   <g id="line2d_72">
    <g clip-path="url(#p7fb0191442)">
     <use style="fill:#b0c4de;stroke:#778899;" x="179.345455" xlink:href="#m36c8b6a54f" y="201.6258"/>
     <use style="fill:#b0c4de;stroke:#778899;" x="179.345455" xlink:href="#m36c8b6a54f" y="203.349313"/>
     <use style="fill:#b0c4de;stroke:#778899;" x="179.345455" xlink:href="#m36c8b6a54f" y="203.019515"/>
     <use style="fill:#b0c4de;stroke:#778899;" x="179.345455" xlink:href="#m36c8b6a54f" y="203.064538"/>
     <use style="fill:#b0c4de;stroke:#778899;" x="179.345455" xlink:href="#m36c8b6a54f" y="203.164786"/>
     <use style="fill:#b0c4de;stroke:#778899;" x="179.345455" xlink:href="#m36c8b6a54f" y="203.009313"/>
     <use style="fill:#b0c4de;stroke:#778899;" x="179.345455" xlink:href="#m36c8b6a54f" y="203.146156"/>
     <use style="fill:#b0c4de;stroke:#778899;" x="179.345455" xlink:href="#m36c8b6a54f" y="203.078954"/>
     <use style="fill:#b0c4de;stroke:#778899;" x="179.345455" xlink:href="#m36c8b6a54f" y="203.293201"/>
     <use style="fill:#b0c4de;stroke:#778899;" x="179.345455" xlink:href="#m36c8b6a54f" y="203.385021"/>
     <use style="fill:#b0c4de;stroke:#778899;" x="179.345455" xlink:href="#m36c8b6a54f" y="203.085386"/>
     <use style="fill:#b0c4de;stroke:#778899;" x="179.345455" xlink:href="#m36c8b6a54f" y="203.20005"/>
     <use style="fill:#b0c4de;stroke:#778899;" x="179.345455" xlink:href="#m36c8b6a54f" y="203.013748"/>
     <use style="fill:#b0c4de;stroke:#778899;" x="179.345455" xlink:href="#m36c8b6a54f" y="203.174101"/>
     <use style="fill:#b0c4de;stroke:#778899;" x="179.345455" xlink:href="#m36c8b6a54f" y="202.785529"/>
     <use style="fill:#b0c4de;stroke:#778899;" x="179.345455" xlink:href="#m36c8b6a54f" y="203.109117"/>
     <use style="fill:#b0c4de;stroke:#778899;" x="179.345455" xlink:href="#m36c8b6a54f" y="203.112222"/>
     <use style="fill:#b0c4de;stroke:#778899;" x="179.345455" xlink:href="#m36c8b6a54f" y="203.061211"/>
     <use style="fill:#b0c4de;stroke:#778899;" x="179.345455" xlink:href="#m36c8b6a54f" y="203.415406"/>
     <use style="fill:#b0c4de;stroke:#778899;" x="179.345455" xlink:href="#m36c8b6a54f" y="203.182307"/>
     <use style="fill:#b0c4de;stroke:#778899;" x="179.345455" xlink:href="#m36c8b6a54f" y="203.101798"/>
     <use style="fill:#b0c4de;stroke:#778899;" x="179.345455" xlink:href="#m36c8b6a54f" y="235.253494"/>
    </g>
   </g>
   <g id="line2d_73">
    <path clip-path="url(#p7fb0191442)" d="M 195.578182 217.606723 
L 195.578182 218.115726 
" style="fill:none;stroke:#778899;stroke-linecap:square;"/>
   </g>
   <g id="line2d_74">
    <path clip-path="url(#p7fb0191442)" d="M 195.578182 179.008541 
L 195.578182 160.05544 
" style="fill:none;stroke:#778899;stroke-linecap:square;"/>
   </g>
   <g id="line2d_75">
    <path clip-path="url(#p7fb0191442)" d="M 193.549091 218.115726 
L 197.607273 218.115726 
" style="fill:none;stroke:#778899;stroke-linecap:square;"/>
   </g>
   <g id="line2d_76">
    <path clip-path="url(#p7fb0191442)" d="M 193.549091 160.05544 
L 197.607273 160.05544 
" style="fill:none;stroke:#778899;stroke-linecap:square;"/>
   </g>
   <g id="line2d_77">
    <g clip-path="url(#p7fb0191442)">
     <use style="fill:#b0c4de;stroke:#778899;" x="195.578182" xlink:href="#m36c8b6a54f" y="54.106944"/>
     <use style="fill:#b0c4de;stroke:#778899;" x="195.578182" xlink:href="#m36c8b6a54f" y="54.124687"/>
     <use style="fill:#b0c4de;stroke:#778899;" x="195.578182" xlink:href="#m36c8b6a54f" y="53.736559"/>
     <use style="fill:#b0c4de;stroke:#778899;" x="195.578182" xlink:href="#m36c8b6a54f" y="53.980525"/>
     <use style="fill:#b0c4de;stroke:#778899;" x="195.578182" xlink:href="#m36c8b6a54f" y="54.302118"/>
     <use style="fill:#b0c4de;stroke:#778899;" x="195.578182" xlink:href="#m36c8b6a54f" y="53.998268"/>
     <use style="fill:#b0c4de;stroke:#778899;" x="195.578182" xlink:href="#m36c8b6a54f" y="53.634536"/>
     <use style="fill:#b0c4de;stroke:#778899;" x="195.578182" xlink:href="#m36c8b6a54f" y="53.568"/>
     <use style="fill:#b0c4de;stroke:#778899;" x="195.578182" xlink:href="#m36c8b6a54f" y="54.721297"/>
     <use style="fill:#b0c4de;stroke:#778899;" x="195.578182" xlink:href="#m36c8b6a54f" y="69.514546"/>
     <use style="fill:#b0c4de;stroke:#778899;" x="195.578182" xlink:href="#m36c8b6a54f" y="72.129424"/>
     <use style="fill:#b0c4de;stroke:#778899;" x="195.578182" xlink:href="#m36c8b6a54f" y="72.923425"/>
     <use style="fill:#b0c4de;stroke:#778899;" x="195.578182" xlink:href="#m36c8b6a54f" y="73.125252"/>
     <use style="fill:#b0c4de;stroke:#778899;" x="195.578182" xlink:href="#m36c8b6a54f" y="72.741559"/>
     <use style="fill:#b0c4de;stroke:#778899;" x="195.578182" xlink:href="#m36c8b6a54f" y="71.572737"/>
     <use style="fill:#b0c4de;stroke:#778899;" x="195.578182" xlink:href="#m36c8b6a54f" y="72.011877"/>
     <use style="fill:#b0c4de;stroke:#778899;" x="195.578182" xlink:href="#m36c8b6a54f" y="73.142995"/>
     <use style="fill:#b0c4de;stroke:#778899;" x="195.578182" xlink:href="#m36c8b6a54f" y="72.79257"/>
     <use style="fill:#b0c4de;stroke:#778899;" x="195.578182" xlink:href="#m36c8b6a54f" y="72.659497"/>
    </g>
   </g>
   <g id="line2d_78">
    <path clip-path="url(#p7fb0191442)" d="M 211.810909 207.924131 
L 211.810909 211.777251 
" style="fill:none;stroke:#778899;stroke-linecap:square;"/>
   </g>
   <g id="line2d_79">
    <path clip-path="url(#p7fb0191442)" d="M 211.810909 94.199089 
L 211.810909 72.444363 
" style="fill:none;stroke:#778899;stroke-linecap:square;"/>
   </g>
   <g id="line2d_80">
    <path clip-path="url(#p7fb0191442)" d="M 209.781818 211.777251 
L 213.84 211.777251 
" style="fill:none;stroke:#778899;stroke-linecap:square;"/>
   </g>
   <g id="line2d_81">
    <path clip-path="url(#p7fb0191442)" d="M 209.781818 72.444363 
L 213.84 72.444363 
" style="fill:none;stroke:#778899;stroke-linecap:square;"/>
   </g>
   <g id="line2d_82"/>
   <g id="line2d_83">
    <path clip-path="url(#p7fb0191442)" d="M 65.716364 295.486525 
L 81.949091 294.278425 
L 98.181818 290.114093 
L 114.414545 285.158981 
L 130.647273 266.725009 
L 146.88 261.666397 
L 163.112727 251.398832 
L 179.345455 236.183732 
L 195.578182 172.348593 
L 211.810909 161.486182 
" style="fill:none;stroke:#808080;stroke-dasharray:5.55,2.4;stroke-dashoffset:0;stroke-width:1.5;"/>
   </g>
   <g id="patch_3">
    <path clip-path="url(#p7fb0191442)" d="M 61.658182 295.487543 
L 69.774545 295.487543 
L 69.774545 295.487204 
L 61.658182 295.487204 
L 61.658182 295.487543 
z
" style="fill:#b0c4de;stroke:#778899;stroke-linejoin:miter;"/>
   </g>
   <g id="patch_4">
    <path clip-path="url(#p7fb0191442)" d="M 77.890909 294.307623 
L 86.007273 294.307623 
L 86.007273 294.273871 
L 77.890909 294.273871 
L 77.890909 294.307623 
z
" style="fill:#b0c4de;stroke:#778899;stroke-linejoin:miter;"/>
   </g>
   <g id="patch_5">
    <path clip-path="url(#p7fb0191442)" d="M 94.123636 290.317626 
L 102.24 290.317626 
L 102.24 289.989358 
L 94.123636 289.989358 
L 94.123636 290.317626 
z
" style="fill:#b0c4de;stroke:#778899;stroke-linejoin:miter;"/>
   </g>
   <g id="patch_6">
    <path clip-path="url(#p7fb0191442)" d="M 110.356364 286.066042 
L 118.472727 286.066042 
L 118.472727 283.690051 
L 110.356364 283.690051 
L 110.356364 286.066042 
z
" style="fill:#b0c4de;stroke:#778899;stroke-linejoin:miter;"/>
   </g>
   <g id="patch_7">
    <path clip-path="url(#p7fb0191442)" d="M 126.589091 278.183924 
L 134.705455 278.183924 
L 134.705455 244.941852 
L 126.589091 244.941852 
L 126.589091 278.183924 
z
" style="fill:#b0c4de;stroke:#778899;stroke-linejoin:miter;"/>
   </g>
   <g id="patch_8">
    <path clip-path="url(#p7fb0191442)" d="M 142.821818 264.225418 
L 150.938182 264.225418 
L 150.938182 259.113208 
L 142.821818 259.113208 
L 142.821818 264.225418 
z
" style="fill:#b0c4de;stroke:#778899;stroke-linejoin:miter;"/>
   </g>
   <g id="patch_9">
    <path clip-path="url(#p7fb0191442)" d="M 159.054545 257.551378 
L 167.170909 257.551378 
L 167.170909 243.910317 
L 159.054545 243.910317 
L 159.054545 257.551378 
z
" style="fill:#b0c4de;stroke:#778899;stroke-linejoin:miter;"/>
   </g>
   <g id="patch_10">
    <path clip-path="url(#p7fb0191442)" d="M 175.287273 245.934575 
L 183.403636 245.934575 
L 183.403636 242.283282 
L 175.287273 242.283282 
L 175.287273 245.934575 
z
" style="fill:#b0c4de;stroke:#778899;stroke-linejoin:miter;"/>
   </g>
   <g id="patch_11">
    <path clip-path="url(#p7fb0191442)" d="M 191.52 217.606723 
L 199.636364 217.606723 
L 199.636364 179.008541 
L 191.52 179.008541 
L 191.52 217.606723 
z
" style="fill:#b0c4de;stroke:#778899;stroke-linejoin:miter;"/>
   </g>
   <g id="patch_12">
    <path clip-path="url(#p7fb0191442)" d="M 207.752727 207.924131 
L 215.869091 207.924131 
L 215.869091 94.199089 
L 207.752727 94.199089 
L 207.752727 207.924131 
z
" style="fill:#b0c4de;stroke:#778899;stroke-linejoin:miter;"/>
   </g>
   <g id="line2d_84">
    <path clip-path="url(#p7fb0191442)" d="M 61.658182 295.487383 
L 69.774545 295.487383 
" style="fill:none;stroke:#778899;stroke-linecap:square;"/>
   </g>
   <g id="line2d_85">
    <path clip-path="url(#p7fb0191442)" d="M 77.890909 294.306638 
L 86.007273 294.306638 
" style="fill:none;stroke:#778899;stroke-linecap:square;"/>
   </g>
   <g id="line2d_86">
    <path clip-path="url(#p7fb0191442)" d="M 94.123636 290.206378 
L 102.24 290.206378 
" style="fill:none;stroke:#778899;stroke-linecap:square;"/>
   </g>
   <g id="line2d_87">
    <path clip-path="url(#p7fb0191442)" d="M 110.356364 285.992897 
L 118.472727 285.992897 
" style="fill:none;stroke:#778899;stroke-linecap:square;"/>
   </g>
   <g id="line2d_88">
    <path clip-path="url(#p7fb0191442)" d="M 126.589091 278.10204 
L 134.705455 278.10204 
" style="fill:none;stroke:#778899;stroke-linecap:square;"/>
   </g>
   <g id="line2d_89">
    <path clip-path="url(#p7fb0191442)" d="M 142.821818 259.210351 
L 150.938182 259.210351 
" style="fill:none;stroke:#778899;stroke-linecap:square;"/>
   </g>
   <g id="line2d_90">
    <path clip-path="url(#p7fb0191442)" d="M 159.054545 257.385037 
L 167.170909 257.385037 
" style="fill:none;stroke:#778899;stroke-linecap:square;"/>
   </g>
   <g id="line2d_91">
    <path clip-path="url(#p7fb0191442)" d="M 175.287273 244.514911 
L 183.403636 244.514911 
" style="fill:none;stroke:#778899;stroke-linecap:square;"/>
   </g>
   <g id="line2d_92">
    <path clip-path="url(#p7fb0191442)" d="M 191.52 190.42374 
L 199.636364 190.42374 
" style="fill:none;stroke:#778899;stroke-linecap:square;"/>
   </g>
   <g id="line2d_93">
    <path clip-path="url(#p7fb0191442)" d="M 207.752727 155.50768 
L 215.869091 155.50768 
" style="fill:none;stroke:#778899;stroke-linecap:square;"/>
   </g>
   <g id="patch_13">
    <path d="M 57.6 307.584 
L 57.6 41.472 
" style="fill:none;stroke:#000000;stroke-linecap:square;stroke-linejoin:miter;stroke-width:0.8;"/>
   </g>
   <g id="patch_14">
    <path d="M 219.927273 307.584 
L 219.927273 41.472 
" style="fill:none;stroke:#000000;stroke-linecap:square;stroke-linejoin:miter;stroke-width:0.8;"/>
   </g>
   <g id="patch_15">
    <path d="M 57.6 307.584 
L 219.927273 307.584 
" style="fill:none;stroke:#000000;stroke-linecap:square;stroke-linejoin:miter;stroke-width:0.8;"/>
   </g>
   <g id="patch_16">
    <path d="M 57.6 41.472 
L 219.927273 41.472 
" style="fill:none;stroke:#000000;stroke-linecap:square;stroke-linejoin:miter;stroke-width:0.8;"/>
   </g>
   <g id="text_19">
    <!-- C -->
    <defs>
     <path d="M 64.40625 67.28125 
L 64.40625 56.890625 
Q 59.421875 61.53125 53.78125 63.8125 
Q 48.140625 66.109375 41.796875 66.109375 
Q 29.296875 66.109375 22.65625 58.46875 
Q 16.015625 50.828125 16.015625 36.375 
Q 16.015625 21.96875 22.65625 14.328125 
Q 29.296875 6.6875 41.796875 6.6875 
Q 48.140625 6.6875 53.78125 8.984375 
Q 59.421875 11.28125 64.40625 15.921875 
L 64.40625 5.609375 
Q 59.234375 2.09375 53.4375 0.328125 
Q 47.65625 -1.421875 41.21875 -1.421875 
Q 24.65625 -1.421875 15.125 8.703125 
Q 5.609375 18.84375 5.609375 36.375 
Q 5.609375 53.953125 15.125 64.078125 
Q 24.65625 74.21875 41.21875 74.21875 
Q 47.75 74.21875 53.53125 72.484375 
Q 59.328125 70.75 64.40625 67.28125 
z
" id="DejaVuSans-43"/>
    </defs>
    <g transform="translate(134.573949 35.472)scale(0.12 -0.12)">
     <use xlink:href="#DejaVuSans-43"/>
    </g>
   </g>
  </g>
  <g id="axes_2">
   <g id="patch_17">
    <path d="M 252.392727 307.584 
L 414.72 307.584 
L 414.72 41.472 
L 252.392727 41.472 
z
" style="fill:#ffffff;"/>
   </g>
   <g id="matplotlib.axis_3">
    <g id="xtick_11">
     <g id="line2d_94">
      <g>
       <use style="stroke:#000000;stroke-width:0.8;" x="252.392727" xlink:href="#mf7c667b445" y="307.584"/>
      </g>
     </g>
     <g id="text_20">
      <!-- 0.0 -->
      <defs>
       <path d="M 10.6875 12.40625 
L 21 12.40625 
L 21 0 
L 10.6875 0 
z
" id="DejaVuSans-2e"/>
      </defs>
      <g transform="translate(244.441165 322.182437)scale(0.1 -0.1)">
       <use xlink:href="#DejaVuSans-30"/>
       <use x="63.623047" xlink:href="#DejaVuSans-2e"/>
       <use x="95.410156" xlink:href="#DejaVuSans-30"/>
      </g>
     </g>
    </g>
    <g id="xtick_12">
     <g id="line2d_95">
      <g>
       <use style="stroke:#000000;stroke-width:0.8;" x="284.858182" xlink:href="#mf7c667b445" y="307.584"/>
      </g>
     </g>
     <g id="text_21">
      <!-- 0.2 -->
      <g transform="translate(276.906619 322.182437)scale(0.1 -0.1)">
       <use xlink:href="#DejaVuSans-30"/>
       <use x="63.623047" xlink:href="#DejaVuSans-2e"/>
       <use x="95.410156" xlink:href="#DejaVuSans-32"/>
      </g>
     </g>
    </g>
    <g id="xtick_13">
     <g id="line2d_96">
      <g>
       <use style="stroke:#000000;stroke-width:0.8;" x="317.323636" xlink:href="#mf7c667b445" y="307.584"/>
      </g>
     </g>
     <g id="text_22">
      <!-- 0.4 -->
      <g transform="translate(309.372074 322.182437)scale(0.1 -0.1)">
       <use xlink:href="#DejaVuSans-30"/>
       <use x="63.623047" xlink:href="#DejaVuSans-2e"/>
       <use x="95.410156" xlink:href="#DejaVuSans-34"/>
      </g>
     </g>
    </g>
    <g id="xtick_14">
     <g id="line2d_97">
      <g>
       <use style="stroke:#000000;stroke-width:0.8;" x="349.789091" xlink:href="#mf7c667b445" y="307.584"/>
      </g>
     </g>
     <g id="text_23">
      <!-- 0.6 -->
      <g transform="translate(341.837528 322.182437)scale(0.1 -0.1)">
       <use xlink:href="#DejaVuSans-30"/>
       <use x="63.623047" xlink:href="#DejaVuSans-2e"/>
       <use x="95.410156" xlink:href="#DejaVuSans-36"/>
      </g>
     </g>
    </g>
    <g id="xtick_15">
     <g id="line2d_98">
      <g>
       <use style="stroke:#000000;stroke-width:0.8;" x="382.254545" xlink:href="#mf7c667b445" y="307.584"/>
      </g>
     </g>
     <g id="text_24">
      <!-- 0.8 -->
      <g transform="translate(374.302983 322.182437)scale(0.1 -0.1)">
       <use xlink:href="#DejaVuSans-30"/>
       <use x="63.623047" xlink:href="#DejaVuSans-2e"/>
       <use x="95.410156" xlink:href="#DejaVuSans-38"/>
      </g>
     </g>
    </g>
    <g id="xtick_16">
     <g id="line2d_99">
      <g>
       <use style="stroke:#000000;stroke-width:0.8;" x="414.72" xlink:href="#mf7c667b445" y="307.584"/>
      </g>
     </g>
     <g id="text_25">
      <!-- 1.0 -->
      <g transform="translate(406.768437 322.182437)scale(0.1 -0.1)">
       <use xlink:href="#DejaVuSans-31"/>
       <use x="63.623047" xlink:href="#DejaVuSans-2e"/>
       <use x="95.410156" xlink:href="#DejaVuSans-30"/>
      </g>
     </g>
    </g>
   </g>
   <g id="matplotlib.axis_4">
    <g id="ytick_7">
     <g id="line2d_100">
      <g>
       <use style="stroke:#000000;stroke-width:0.8;" x="252.392727" xlink:href="#m8d2790d62e" y="307.584"/>
      </g>
     </g>
     <g id="text_26">
      <!-- 0.0 -->
      <g transform="translate(229.489602 311.383219)scale(0.1 -0.1)">
       <use xlink:href="#DejaVuSans-30"/>
       <use x="63.623047" xlink:href="#DejaVuSans-2e"/>
       <use x="95.410156" xlink:href="#DejaVuSans-30"/>
      </g>
     </g>
    </g>
    <g id="ytick_8">
     <g id="line2d_101">
      <g>
       <use style="stroke:#000000;stroke-width:0.8;" x="252.392727" xlink:href="#m8d2790d62e" y="254.3616"/>
      </g>
     </g>
     <g id="text_27">
      <!-- 0.2 -->
      <g transform="translate(229.489602 258.160819)scale(0.1 -0.1)">
       <use xlink:href="#DejaVuSans-30"/>
       <use x="63.623047" xlink:href="#DejaVuSans-2e"/>
       <use x="95.410156" xlink:href="#DejaVuSans-32"/>
      </g>
     </g>
    </g>
    <g id="ytick_9">
     <g id="line2d_102">
      <g>
       <use style="stroke:#000000;stroke-width:0.8;" x="252.392727" xlink:href="#m8d2790d62e" y="201.1392"/>
      </g>
     </g>
     <g id="text_28">
      <!-- 0.4 -->
      <g transform="translate(229.489602 204.938419)scale(0.1 -0.1)">
       <use xlink:href="#DejaVuSans-30"/>
       <use x="63.623047" xlink:href="#DejaVuSans-2e"/>
       <use x="95.410156" xlink:href="#DejaVuSans-34"/>
      </g>
     </g>
    </g>
    <g id="ytick_10">
     <g id="line2d_103">
      <g>
       <use style="stroke:#000000;stroke-width:0.8;" x="252.392727" xlink:href="#m8d2790d62e" y="147.9168"/>
      </g>
     </g>
     <g id="text_29">
      <!-- 0.6 -->
      <g transform="translate(229.489602 151.716019)scale(0.1 -0.1)">
       <use xlink:href="#DejaVuSans-30"/>
       <use x="63.623047" xlink:href="#DejaVuSans-2e"/>
       <use x="95.410156" xlink:href="#DejaVuSans-36"/>
      </g>
     </g>
    </g>
    <g id="ytick_11">
     <g id="line2d_104">
      <g>
       <use style="stroke:#000000;stroke-width:0.8;" x="252.392727" xlink:href="#m8d2790d62e" y="94.6944"/>
      </g>
     </g>
     <g id="text_30">
      <!-- 0.8 -->
      <g transform="translate(229.489602 98.493619)scale(0.1 -0.1)">
       <use xlink:href="#DejaVuSans-30"/>
       <use x="63.623047" xlink:href="#DejaVuSans-2e"/>
       <use x="95.410156" xlink:href="#DejaVuSans-38"/>
      </g>
     </g>
    </g>
    <g id="ytick_12">
     <g id="line2d_105">
      <g>
       <use style="stroke:#000000;stroke-width:0.8;" x="252.392727" xlink:href="#m8d2790d62e" y="41.472"/>
      </g>
     </g>
     <g id="text_31">
      <!-- 1.0 -->
      <g transform="translate(229.489602 45.271219)scale(0.1 -0.1)">
       <use xlink:href="#DejaVuSans-31"/>
       <use x="63.623047" xlink:href="#DejaVuSans-2e"/>
       <use x="95.410156" xlink:href="#DejaVuSans-30"/>
      </g>
     </g>
    </g>
   </g>
   <g id="patch_18">
    <path d="M 252.392727 307.584 
L 252.392727 41.472 
" style="fill:none;stroke:#000000;stroke-linecap:square;stroke-linejoin:miter;stroke-width:0.8;"/>
   </g>
   <g id="patch_19">
    <path d="M 414.72 307.584 
L 414.72 41.472 
" style="fill:none;stroke:#000000;stroke-linecap:square;stroke-linejoin:miter;stroke-width:0.8;"/>
   </g>
   <g id="patch_20">
    <path d="M 252.392727 307.584 
L 414.72 307.584 
" style="fill:none;stroke:#000000;stroke-linecap:square;stroke-linejoin:miter;stroke-width:0.8;"/>
   </g>
   <g id="patch_21">
    <path d="M 252.392727 41.472 
L 414.72 41.472 
" style="fill:none;stroke:#000000;stroke-linecap:square;stroke-linejoin:miter;stroke-width:0.8;"/>
   </g>
  </g>
 </g>
 <defs>
  <clipPath id="p7fb0191442">
   <rect height="266.112" width="162.327273" x="57.6" y="41.472"/>
  </clipPath>
 </defs>
</svg>
